<svg width="1440" height="370" viewBox="0 0 1440 370" fill="none" xmlns="http://www.w3.org/2000/svg">
<path d="M486.505 369.497C479.401 369.497 472.487 369.195 465.843 368.594C451.908 367.333 439.033 364.742 427.577 360.895C415.263 356.761 404.463 351.128 395.474 344.152C377.409 330.132 368.371 313.343 359.629 297.105C357.912 293.916 356.136 290.62 354.334 287.421C342.034 265.618 326.441 246.52 306.669 229.036C267.227 194.157 211.758 164.391 146.257 142.955C70.5048 118.165 -10.9409 105.817 -83.0791 108.184C-125.478 109.577 -181.499 122.816 -206.537 145.426C-221.395 158.845 -222.593 173.736 -209.999 188.488L-210.249 188.55C-216.853 180.814 -219.73 173.058 -218.798 165.498C-217.944 158.563 -213.898 151.784 -206.773 145.349C-195.44 135.114 -176.751 126.043 -152.725 119.115C-130.524 112.715 -105.797 108.78 -83.0956 108.035C-45.3434 106.797 -5.19209 109.544 36.2425 116.203C73.8024 122.24 110.865 131.197 146.4 142.826C211.94 164.273 267.441 194.056 306.906 228.955C326.689 246.452 342.289 265.56 354.598 287.375C356.403 290.574 358.178 293.872 359.893 297.06C368.626 313.286 377.659 330.064 395.7 344.063C413.147 357.604 436.763 365.807 465.889 368.443C506.225 372.094 555.206 364.457 596.909 348.012C657.009 324.314 698.718 289.82 739.056 256.462C746.127 250.615 753.436 244.57 760.675 238.732C779.466 223.572 804.915 203.927 835.16 186.426C866.075 168.538 897.49 155.395 931.203 146.246C951.838 140.645 973.706 136.872 996.202 135.031C1016.98 133.33 1038.97 133.225 1061.57 134.715C1100.33 137.272 1142.09 144.497 1189.23 156.799C1282.06 181.026 1374.79 210.432 1464.84 244.201C1550.44 276.298 1634.38 312.618 1714.35 352.149L1714.16 352.259C1548.4 270.313 1371.75 204.597 1189.11 156.933C1085.93 130.005 1004.02 126.65 931.327 146.378C857.375 166.446 805.715 202.664 760.903 238.813C753.667 244.65 746.358 250.696 739.287 256.543C698.938 289.912 657.215 324.416 597.074 348.131C577.64 355.794 555.777 361.772 533.851 365.416C522.268 367.341 510.754 368.6 499.624 369.158C495.189 369.385 490.811 369.497 486.505 369.497Z" fill="#FFE492"/>
<path d="M493.451 361.183C475.336 361.183 458.556 359.32 443.56 355.643C426.839 351.543 412.409 345.19 400.669 336.761C399.63 336.015 398.6 335.243 397.605 334.465C379.732 320.506 370.293 303.934 361.167 287.907C359.32 284.669 357.413 281.318 355.478 278.067C343.956 258.711 330.081 241.651 313.057 225.915C310.96 223.978 308.789 222.036 306.599 220.145C266.577 185.567 210.658 156.177 144.887 135.154C68.5879 110.788 -13.0887 98.9498 -85.0977 101.822C-127.189 103.519 -182.952 116.975 -208.096 139.411C-223.153 152.846 -224.856 167.767 -213.029 182.562L-213.282 182.622C-219.481 174.867 -222.029 167.096 -220.85 159.528C-219.767 152.576 -215.557 145.782 -208.333 139.334C-196.884 129.117 -178.25 120.036 -154.449 113.072C-132.452 106.636 -107.832 102.588 -85.1224 101.674C-47.4169 100.17 -7.22165 102.655 34.3448 109.058C71.9954 114.859 109.234 123.597 145.024 135.026C210.833 156.062 266.783 185.469 306.83 220.067C309.02 221.959 311.194 223.902 313.291 225.841C330.326 241.587 344.208 258.656 355.736 278.023C357.674 281.274 359.581 284.624 361.428 287.864C370.551 303.881 379.982 320.441 397.831 334.381C398.823 335.155 399.853 335.927 400.889 336.672C425.149 354.095 458.482 361.183 493.536 361.183C493.728 361.183 493.918 361.183 494.11 361.183C493.89 361.181 493.67 361.183 493.451 361.183ZM500.928 361.079C533.517 360.175 567.144 353.41 595.993 343.348C658.222 321.553 702.946 287.89 746.199 255.336C747.98 253.994 749.761 252.655 751.542 251.316C755.452 248.377 760.088 244.897 764.82 241.39C786.048 225.66 811.74 207.357 841.328 190.884C872.809 173.355 904.26 160.347 937.475 151.116C957.885 145.45 979.454 141.458 1001.58 139.252C1022.09 137.208 1043.75 136.631 1065.98 137.535C1104.37 139.098 1145.65 145.024 1192.18 155.652C1237.54 165.998 1274.84 175.737 1309.53 186.301C1358.69 201.282 1405.51 218.542 1444.84 233.45C1536.25 268.208 1625.95 307.676 1711.43 350.759L1711.25 350.868C1625.77 307.791 1536.08 268.325 1444.68 233.572C1405.36 218.665 1358.55 201.408 1309.4 186.432C1274.71 175.871 1237.43 166.135 1192.08 155.791C1090.72 132.638 1009.85 131.194 937.602 151.249C862.614 172.087 809.211 208.75 765.043 241.479C760.308 244.987 755.675 248.464 751.764 251.405C749.983 252.742 748.203 254.083 746.422 255.425C703.154 287.989 658.414 321.664 596.141 343.475C580.7 348.861 564.27 353.139 547.303 356.189C531.511 359.026 515.943 360.666 500.928 361.079Z" fill="#FFE492"/>
<path d="M501.109 353.059C498.93 353.059 496.764 353.034 494.615 352.982C476.517 352.55 459.768 350.307 444.835 346.313C428.504 341.944 414.354 335.474 402.782 327.079C401.754 326.331 400.729 325.558 399.74 324.78C382.068 310.889 372.235 294.539 362.73 278.729C360.749 275.433 358.699 272.025 356.621 268.718C344.53 249.427 330.29 232.503 313.081 216.98C310.952 215.06 308.748 213.135 306.525 211.259C265.923 176.981 209.553 147.969 143.512 127.359C66.6696 103.415 -15.2378 92.0866 -87.1205 95.4636C-127.593 97.3948 -183.194 110.083 -209.63 133.376C-224.903 146.834 -227.126 161.795 -216.06 176.642L-216.316 176.696C-222.114 168.918 -224.326 161.13 -222.897 153.548C-221.584 146.574 -217.198 139.762 -209.863 133.299C-198.294 123.106 -179.72 114.021 -156.148 107.025C-134.356 100.558 -109.849 96.4002 -87.1452 95.3166C-49.4836 93.5487 -9.24442 95.7694 32.4512 101.918C70.1953 107.484 107.607 116 143.65 127.231C209.729 147.855 266.129 176.884 306.756 211.18C308.979 213.058 311.185 214.983 313.315 216.905C330.531 232.438 344.78 249.372 356.877 268.673C358.954 271.982 361.004 275.39 362.985 278.686C372.488 294.487 382.312 310.825 399.963 324.7C400.952 325.478 401.972 326.25 402.999 326.995C450.021 361.103 533.352 357.441 595.075 338.683C659.9 318.808 708.076 285.776 754.666 253.832L755.144 253.504C759.656 250.408 764.322 247.208 768.966 244.047C817.972 210.708 871.836 176.446 943.751 155.983C963.941 150.251 985.213 146.041 1006.97 143.472C1027.21 141.082 1048.55 140.032 1070.39 140.353C1108.48 140.911 1149.28 145.539 1195.13 154.502C1243.32 163.888 1279.59 172.515 1312.72 182.477C1359.92 196.699 1405.64 214.67 1445.98 230.526C1535.8 266.019 1624.13 306.003 1708.52 349.363L1708.33 349.47C1623.95 306.114 1535.63 266.135 1445.82 230.645C1405.49 214.792 1359.77 196.823 1312.58 182.606C1279.47 172.647 1243.21 164.023 1195.04 154.64C1095.65 135.212 1015.84 135.68 943.878 156.113C872.009 176.561 818.167 210.809 769.181 244.136C764.537 247.297 759.87 250.499 755.358 253.594L754.88 253.922C731.662 269.84 707.655 286.3 681.731 301.003C652.596 317.526 624.294 329.892 595.207 338.809C564.775 348.057 531.626 353.059 501.109 353.059Z" fill="#FFE492"/>
<path d="M1705.42 348.069C1622.13 304.434 1535.18 263.942 1446.97 227.717C1443.23 226.194 1439.49 224.664 1435.73 223.129C1397.53 207.51 1358.02 191.36 1315.77 178.778C1274.78 166.606 1233.24 159.164 1198.01 153.489C1100.77 137.728 1022.01 140.107 950.162 160.975C876.403 182.46 819.249 218.131 773.327 246.794C770.571 248.515 767.82 250.238 765.064 251.963C763.03 253.237 760.994 254.51 758.958 255.782C732.811 272.119 709.026 286.726 682.747 300.054C652.725 315.279 623.788 326.43 594.278 334.144C566.621 341.375 537.078 345.2 509.597 345.202C504.59 345.202 499.658 345.075 494.81 344.819C477.113 343.882 460.729 341.25 446.115 336.996C430.169 332.354 416.299 325.761 404.887 317.398C403.867 316.648 402.851 315.873 401.867 315.094C384.403 301.276 374.189 285.155 364.312 269.566C362.185 266.209 359.984 262.735 357.758 259.364C345.09 240.134 330.482 223.346 313.103 208.039C310.94 206.134 308.701 204.227 306.447 202.367C265.263 168.391 208.445 139.755 142.138 119.556C64.7512 96.0358 -17.3843 85.2191 -89.1405 89.0963C-138.195 91.7994 -188.358 107.513 -211.128 127.307C-226.64 140.793 -229.391 155.802 -219.089 170.711L-219.347 170.763C-224.741 162.956 -226.621 155.144 -224.934 147.542C-223.381 140.544 -218.814 133.709 -211.361 127.229C-199.671 117.065 -181.158 107.981 -157.822 100.96C-136.239 94.4654 -111.858 90.1992 -89.168 88.9494C-51.5504 86.9158 -11.27 88.8737 30.5548 94.7667C68.3895 100.099 105.98 108.395 142.275 119.425C208.624 139.637 265.472 168.288 306.681 202.285C308.937 204.146 311.177 206.055 313.34 207.96C330.729 223.276 345.343 240.073 358.019 259.312C360.245 262.685 362.447 266.157 364.574 269.516C374.444 285.096 384.653 301.206 402.095 315.008C403.079 315.786 404.093 316.559 405.109 317.307C454.197 353.28 537.63 348.786 594.159 334.009C661.604 316.378 713.214 284.134 758.752 255.684C760.788 254.411 762.822 253.137 764.858 251.865C767.611 250.14 770.365 248.417 773.121 246.696C799.335 230.335 825.221 214.436 853.679 199.785C886.405 182.936 917.925 170.199 950.036 160.844C970.014 155.042 990.984 150.614 1012.37 147.685C1032.35 144.946 1053.36 143.426 1074.82 143.165C1112.66 142.705 1152.98 146.036 1198.1 153.346C1233.34 159.024 1274.9 166.47 1315.9 178.649C1358.17 191.235 1397.69 207.39 1435.9 223.012C1439.66 224.546 1443.4 226.077 1447.14 227.6C1535.36 263.828 1622.32 304.325 1705.61 347.964L1705.42 348.069Z" fill="#FFE492"/>
<path d="M1702.51 346.671C1618.75 301.923 1533.16 260.915 1448.12 224.79C1443.03 222.628 1437.82 220.4 1432.79 218.247C1396.73 202.821 1359.45 186.87 1318.95 174.952C1278.52 163.093 1236.63 156.864 1200.98 152.337C1106.11 140.169 1028.4 144.459 956.444 165.837C887.81 186.303 834.039 217.077 782.039 246.837L776.328 250.104C771.819 252.686 767.155 255.353 762.558 257.97C710.505 287.56 658.397 315.293 593.349 329.477C577.564 332.92 561.356 335.305 545.171 336.571C527.789 337.93 510.906 337.949 494.986 336.628C477.696 335.192 461.683 332.178 447.393 327.666C431.842 322.758 418.251 316.044 407 307.713C405.986 306.959 404.978 306.183 404.002 305.405C386.753 291.669 376.17 275.786 365.937 260.425C363.653 256.998 361.29 253.453 358.905 250.011C345.648 230.84 330.677 214.187 313.134 199.1C310.941 197.214 308.668 195.322 306.379 193.477C264.615 159.802 207.349 131.544 140.77 111.755C62.8359 88.6613 -19.5304 78.3538 -91.163 82.7342C-139.77 85.7697 -189.704 101.593 -212.59 121.215C-228.36 134.735 -231.655 149.802 -222.12 164.786L-222.381 164.835C-227.371 156.995 -228.913 149.153 -226.964 141.529C-225.167 134.501 -220.41 127.64 -212.826 121.138C-201.009 111.009 -182.562 101.933 -159.473 94.8913C-138.105 88.3733 -113.856 84.0048 -91.1959 82.5887C-53.6223 80.2909 -13.3006 81.9846 28.6561 87.6223C66.5842 92.7196 104.347 100.795 140.899 111.626C207.516 131.425 264.815 159.701 306.604 193.395C308.893 195.242 311.169 197.136 313.362 199.021C330.916 214.116 345.895 230.778 359.157 249.959C361.543 253.401 363.906 256.947 366.19 260.375C376.418 275.726 386.995 291.602 404.225 305.322C405.198 306.097 406.206 306.872 407.217 307.626C455.124 343.098 534.723 342.102 593.242 329.341C658.238 315.168 710.324 287.446 762.355 257.869C766.952 255.252 771.615 252.585 776.125 250.003L781.835 246.736C807.362 232.129 833.754 217.022 862.418 202.969C894.883 187.054 925.595 174.865 956.307 165.707C976.082 159.832 996.755 155.185 1017.75 151.899C1037.49 148.809 1058.17 146.817 1079.23 145.978C1116.9 144.477 1156.75 146.511 1201.05 152.191C1236.71 156.722 1278.62 162.952 1319.08 174.821C1359.6 186.743 1396.89 202.699 1432.96 218.129C1437.99 220.283 1443.2 222.51 1448.28 224.672C1533.34 260.801 1618.93 301.811 1702.7 346.564L1702.51 346.671Z" fill="#FFE492"/>
<path d="M1699.59 345.274C1616.56 300.029 1532.33 258.507 1449.26 221.865C1443.02 219.112 1436.62 216.248 1430.43 213.48C1396.32 198.221 1361.05 182.442 1322.14 171.129C1281.89 159.474 1239.81 154.508 1203.96 151.189C1111.71 142.519 1035.05 148.721 962.724 170.704C899.602 189.97 847.777 217.274 797.656 243.678C792.382 246.457 786.927 249.329 781.613 252.113C775.372 255.381 770.604 257.865 766.155 260.162C742.327 272.462 713.957 286.625 684.185 298.405C652.635 310.887 622.618 319.526 592.417 324.816C576.536 327.598 560.397 329.353 544.445 330.029C527.317 330.757 510.732 330.222 495.157 328.44C478.281 326.508 462.642 323.111 448.668 318.341C433.516 313.17 420.207 306.336 409.111 298.032C408.111 297.279 407.107 296.502 406.135 295.721C389.113 282.076 378.176 266.438 367.596 251.315C365.143 247.808 362.606 244.182 360.048 240.659C346.195 221.542 330.858 205.025 313.158 190.162C310.932 188.293 308.627 186.418 306.305 184.588C263.961 151.215 206.244 123.333 139.396 103.956C60.9205 81.2866 -21.6766 71.4912 -93.1828 76.3719C-133.87 79.21 -187.011 92.2844 -214.013 115.094C-230.067 128.655 -233.92 143.79 -225.151 158.861L-225.412 158.905C-229.998 151.025 -231.196 143.148 -228.976 135.495C-226.926 128.431 -221.971 121.54 -214.244 115.013C-202.301 104.925 -183.922 95.8648 -161.089 88.808C-139.935 82.2708 -115.832 77.8028 -93.2157 76.2249C-55.6861 73.6628 -15.3204 75.0923 26.7627 80.4747C64.7815 85.3375 102.721 93.1929 139.525 103.826C206.412 123.213 264.161 151.111 306.53 184.503C308.852 186.334 311.16 188.211 313.386 190.082C331.095 204.952 346.439 221.478 360.3 240.604C362.862 244.128 365.398 247.754 367.852 251.262C378.424 266.378 389.358 282.007 406.36 295.636C407.333 296.416 408.333 297.192 409.333 297.943C449.188 327.77 517.6 337.763 592.332 324.672C660.01 312.818 715.218 286.249 765.966 260.053C770.415 257.755 775.18 255.271 781.42 252.003C786.735 249.22 792.19 246.347 797.463 243.568C822.138 230.57 847.65 217.129 874.864 204.543C905.636 190.309 934.334 179.197 962.592 170.572C982.177 164.62 1002.55 159.756 1023.14 156.116C1042.65 152.668 1063.01 150.205 1083.65 148.793C1121.23 146.226 1160.6 146.96 1204 151.039C1239.88 154.361 1281.99 159.328 1322.27 170.994C1361.2 182.314 1396.48 198.097 1430.6 213.361C1436.79 216.13 1443.19 218.993 1449.44 221.747C1532.51 258.393 1616.74 299.917 1699.79 345.166L1699.59 345.274Z" fill="#FFE492"/>
<path d="M1696.68 343.876C1614.36 298.13 1531.5 256.094 1450.4 218.939C1443.5 215.778 1436.42 212.461 1429.57 209.253C1396.92 193.973 1363.17 178.173 1325.32 167.303C1285.04 155.787 1242.87 152.113 1206.93 150.038C1118.86 144.817 1041.03 153.168 969.002 175.568C911.648 193.484 862.483 217.453 814.937 240.633C805.333 245.315 795.404 250.157 785.75 254.772C779.845 257.596 774.613 260.077 769.749 262.354C747.13 272.932 717.042 286.494 684.89 297.578C652.584 308.714 622.029 316.099 591.479 320.153C558.16 324.575 524.906 324.607 495.315 320.249C478.863 317.825 463.595 314.046 449.934 309.015C435.186 303.584 422.16 296.631 411.215 288.353C410.223 287.599 409.228 286.819 408.261 286.039C391.481 272.498 380.203 257.117 369.299 242.243C366.661 238.645 363.935 234.925 361.185 231.311C346.724 212.244 331.022 195.861 313.179 181.228C310.921 179.375 308.582 177.517 306.227 175.703C263.303 142.631 205.138 115.125 138.021 96.1622C59.0043 73.9187 -23.8236 64.6339 -95.2061 70.0148C-143.582 73.7406 -191.884 89.386 -215.396 108.944C-231.758 122.555 -236.179 137.768 -228.183 152.94L-228.446 152.98C-232.626 145.052 -233.478 137.134 -230.98 129.448C-228.672 122.344 -223.505 115.418 -215.627 108.863C-203.558 98.8222 -185.25 89.7823 -162.684 82.7196C-141.752 76.169 -117.8 71.6031 -95.2446 69.8664C-57.7589 67.0401 -17.3493 68.2068 24.863 73.3324C62.9752 77.9607 101.09 85.5964 138.147 96.0286C205.303 115.004 263.501 142.524 306.452 175.617C308.807 177.431 311.146 179.291 313.407 181.145C331.259 195.787 346.969 212.177 361.437 231.253C364.188 234.867 366.914 238.589 369.552 242.187C380.451 257.053 391.723 272.427 408.486 285.954C409.453 286.735 410.445 287.511 411.438 288.265C450.608 317.899 517.887 329.766 591.413 320.009C658.443 311.113 716.651 286.987 769.567 262.242C774.428 259.965 779.663 257.487 785.566 254.662C795.217 250.047 805.149 245.206 814.75 240.524C862.307 217.34 911.48 193.366 968.862 175.442C988.274 169.405 1008.35 164.324 1028.53 160.337C1047.83 156.525 1067.86 153.59 1088.06 151.614C1125.63 147.94 1164.52 147.378 1206.95 149.892C1242.92 151.969 1285.13 155.644 1325.44 167.174C1363.32 178.051 1397.09 193.857 1429.75 209.143C1436.6 212.351 1443.68 215.667 1450.58 218.827C1531.69 255.986 1614.55 298.025 1696.87 343.774L1696.68 343.876Z" fill="#FFE492"/>
<path d="M1693.76 342.477C1612.18 296.226 1530.69 253.678 1451.55 216.012C1444.28 212.55 1436.8 208.885 1429.56 205.341C1398.11 189.931 1365.59 173.996 1328.5 163.477C1288.06 152.059 1245.85 149.694 1209.89 148.886C1125.16 146.844 1048.41 157.162 975.282 180.431C923.995 196.828 878.277 217.579 834.061 237.647C818.859 244.548 804.498 251.066 789.892 257.429C783.951 260.019 778.54 262.347 773.346 264.542C739.834 278.696 711.953 288.929 685.599 296.746C652.538 306.553 621.447 312.684 590.548 315.486C578.561 316.573 566.618 317.115 554.893 317.115C534.107 317.115 513.994 315.417 495.478 312.053C461.969 305.966 434.329 294.733 413.326 278.668C412.337 277.906 411.35 277.127 410.394 276.349C393.87 262.926 382.276 247.818 371.064 233.205C368.223 229.503 365.288 225.677 362.328 221.955C347.25 202.933 331.179 186.686 313.207 172.286C310.915 170.45 308.544 168.608 306.156 166.81C262.652 134.04 204.037 106.911 136.65 88.3592C57.0921 66.5432 -25.964 57.7676 -97.2228 63.6487C-145.8 67.7411 -192.708 83.0897 -216.723 102.752C-233.417 116.419 -238.424 131.723 -231.208 147.01L-231.474 147.047C-235.242 139.064 -235.742 131.099 -232.958 123.373C-230.381 116.221 -224.997 109.256 -216.951 102.67C-204.756 92.6847 -186.528 83.6745 -164.236 76.6118C-143.53 70.0508 -119.746 65.3958 -97.2641 63.5017C-59.8223 60.4113 -19.3688 61.3138 22.9699 66.184C61.1756 70.5793 99.4637 77.9953 136.776 88.2256C204.202 106.789 262.85 133.933 306.381 166.723C308.769 168.522 311.141 170.364 313.435 172.202C331.418 186.609 347.497 202.865 362.581 221.894C365.541 225.616 368.478 229.444 371.317 233.146C382.523 247.751 394.112 262.853 410.622 276.264C411.578 277.041 412.562 277.82 413.551 278.58C452.771 308.582 517.267 321.981 590.502 315.338C660.216 309.014 721.964 286.053 773.176 264.424C778.367 262.228 783.778 259.902 789.719 257.312C804.322 250.948 818.683 244.432 833.885 237.531C878.106 217.459 923.836 196.704 975.141 180.302C994.408 174.171 1014.18 168.872 1033.92 164.55C1053.03 160.364 1072.74 156.957 1092.48 154.426C1130.13 149.6 1168.54 147.739 1209.9 148.737C1245.89 149.544 1288.14 151.912 1328.63 163.343C1365.74 173.87 1398.28 189.812 1429.75 205.228C1436.98 208.772 1444.46 212.437 1451.73 215.898C1530.87 253.567 1612.37 296.12 1693.96 342.373L1693.76 342.477Z" fill="#FFE492"/>
<path d="M1690.85 341.079C1608.86 293.662 1530.96 251.795 1452.7 213.085C1445.23 209.392 1437.88 205.62 1430.09 201.627C1399.66 186.017 1368.2 169.878 1331.68 159.652C1290.73 148.238 1246.67 147.288 1212.86 147.737C1131.98 148.669 1056.32 160.955 981.561 185.297C936.705 199.974 895.29 217.598 855.237 234.643C834.188 243.601 814.306 252.061 794.031 260.09C788.013 262.475 782.42 264.648 776.941 266.734C742.973 279.642 714.173 288.913 686.303 295.914C652.475 304.41 620.848 309.287 589.614 310.821C573.566 311.61 557.627 311.461 542.241 310.381C525.951 309.236 510.271 307.041 495.637 303.857C463.202 296.798 436.22 285.067 415.436 268.987C414.455 268.224 413.477 267.443 412.526 266.665C396.28 253.38 384.395 238.56 372.9 224.228C369.833 220.405 366.662 216.45 363.471 212.606C347.761 193.625 331.328 177.513 313.232 163.351C310.905 161.531 308.5 159.705 306.085 157.924C262.001 125.455 202.938 98.703 135.282 80.5623C72.8357 63.8882 8.43863 55.1882 -50.6135 55.1882C-67.3077 55.1882 -83.5622 55.8829 -99.2397 57.2886C-147.231 61.6765 -193.846 77.0799 -218.001 96.5313C-235.049 110.262 -240.664 125.67 -234.236 141.088L-234.505 141.121C-237.861 133.075 -238.001 125.055 -234.923 117.284C-232.071 110.081 -226.454 103.07 -218.232 96.4482C-205.909 86.5251 -187.767 77.552 -165.761 70.4967C-144.989 63.8363 -122.001 59.2183 -99.2891 57.1432C-61.8914 53.7884 -21.3938 54.4282 21.074 59.0417C59.3704 63.2009 97.8371 70.3957 135.403 80.4272C203.097 98.5783 262.196 125.345 306.307 157.833C308.725 159.615 311.133 161.442 313.46 163.263C331.564 177.433 348.006 193.552 363.724 212.542C366.915 216.386 370.089 220.341 373.155 224.166C384.645 238.492 396.525 253.306 412.757 266.581C413.708 267.357 414.686 268.138 415.664 268.899C454.53 298.969 517.921 314.193 589.592 310.672C662.115 307.108 727.727 285.251 776.787 266.609C782.266 264.524 787.856 262.35 793.874 259.966C814.146 251.94 834.025 243.479 855.073 234.523C895.13 217.476 936.551 199.847 981.423 185.167C1019.92 172.634 1057.69 163.501 1096.9 157.243C1134.72 151.207 1172.65 148.048 1212.86 147.585C1235.8 147.281 1254.52 147.809 1271.77 149.246C1294.04 151.102 1313.68 154.461 1331.81 159.517C1368.36 169.752 1399.84 185.9 1430.29 201.517C1438.07 205.51 1445.42 209.281 1452.89 212.974C1531.16 251.685 1609.06 293.555 1691.06 340.975L1690.85 341.079Z" fill="#FFE492"/>
<path d="M1687.94 339.68C1606.7 291.743 1530.13 249.377 1453.84 210.157C1446.29 206.277 1438.85 202.279 1430.97 198.047C1401.46 182.191 1370.93 165.793 1334.87 155.824C1293.58 144.464 1249.56 144.918 1215.84 146.582C1139.51 150.218 1064.93 164.472 987.84 190.158C949.857 202.875 913.693 217.427 878.719 231.502C851.072 242.628 824.96 253.137 798.172 262.743C792.118 264.916 786.183 266.994 780.536 268.918C746.501 280.502 715.908 289.056 687.007 295.071C652.401 302.273 620.238 305.898 588.68 306.151C572.623 306.278 556.748 305.494 541.505 303.819C525.525 302.061 510.147 299.314 495.797 295.65C464.475 287.654 438.146 275.424 417.544 259.299C416.577 258.537 415.604 257.755 414.656 256.973C398.715 243.85 386.572 229.343 374.827 215.314C371.504 211.344 368.066 207.239 364.612 203.247C348.259 184.302 331.46 168.327 313.257 154.406C310.897 152.603 308.459 150.793 306.011 149.029C261.347 116.86 201.833 90.4859 133.908 72.7565C53.2701 51.7969 -30.2504 44.0425 -101.262 50.9212C-148.632 55.5896 -194.936 71.0331 -219.226 90.2633C-236.659 104.067 -242.897 119.59 -237.269 135.158L-237.539 135.187C-240.474 127.072 -240.248 118.989 -236.865 111.165C-233.725 103.902 -227.868 96.8406 -219.454 90.1787C-207.011 80.3268 -188.959 71.3982 -167.25 64.3578C-146.717 57.6989 -123.917 53.0023 -101.311 50.7742C-63.9548 47.1568 -23.416 47.5308 19.1782 51.889C57.568 55.8167 96.2079 62.7918 134.026 72.6214C201.993 90.3598 261.54 116.751 306.228 148.938C308.679 150.703 311.119 152.514 313.48 154.319C331.694 168.247 348.498 184.229 364.859 203.182C368.316 207.173 371.752 211.279 375.077 215.25C386.816 229.273 398.954 243.774 414.884 256.888C415.832 257.669 416.805 258.451 417.77 259.211C457.044 289.95 517.74 306.569 588.674 305.999C646.232 305.539 707.15 293.714 780.387 268.789C786.031 266.865 791.964 264.788 798.018 262.615C824.798 253.011 850.909 242.505 878.552 231.379C913.531 217.303 949.701 202.747 987.695 190.027C1026.56 177.076 1063.73 167.273 1101.31 160.055C1139.39 152.742 1176.84 148.285 1215.81 146.429C1249.58 144.762 1293.64 144.31 1334.99 155.688C1371.1 165.669 1401.64 182.074 1431.17 197.938C1439.05 202.17 1446.49 206.165 1454.03 210.044C1530.32 249.266 1606.9 291.635 1688.14 339.574L1687.94 339.68Z" fill="#FFE492"/>
<path d="M1685.02 338.28C1604.54 289.823 1529.3 246.955 1454.99 207.23C1447.45 203.197 1440 199.007 1432.11 194.57C1403.43 178.43 1373.77 161.741 1338.05 151.998C1296.37 140.679 1252.43 142.542 1218.81 145.429C1146.99 151.478 1075.6 167.236 994.121 195.021C963.564 205.489 933.701 216.972 904.822 228.077C869.746 241.564 836.616 254.304 802.313 265.4C796.132 267.401 790.015 269.322 784.132 271.106C749.487 281.607 717.949 289.171 687.712 294.23C670.776 297.064 654.057 299.116 638.02 300.332C620.913 301.628 603.999 302.015 587.747 301.484C554.774 300.405 523.892 295.682 495.961 287.446C465.796 278.552 440.124 265.825 419.659 249.615C418.698 248.848 417.733 248.064 416.791 247.286C401.19 234.356 388.829 220.193 376.878 206.498C373.259 202.352 369.519 198.066 365.757 193.894C348.744 174.98 331.58 159.141 313.284 145.468C310.89 143.679 308.417 141.886 305.938 140.139C260.695 108.271 200.733 82.2732 132.538 64.9579C51.362 44.4274 -32.3866 37.1836 -103.28 44.5595C-179.188 52.5796 -253.157 87.2325 -240.296 129.233L-240.568 129.257C-243.786 118.75 -241.901 108.4 -234.968 98.4901C-228.636 89.4398 -218.246 80.9224 -204.085 73.1769C-190.92 65.9747 -175.124 59.7566 -157.141 54.6949C-140.037 49.881 -121.431 46.3244 -103.335 44.4125C-66.0223 40.5309 -25.4396 40.6422 17.2839 44.745C55.7671 48.4397 94.5828 55.1951 132.654 64.8243C200.887 82.1515 260.885 108.164 306.155 140.05C308.637 141.798 311.11 143.592 313.506 145.382C331.811 159.06 348.983 174.909 366.004 193.831C369.766 198.002 373.507 202.289 377.126 206.436C389.074 220.126 401.429 234.283 417.021 247.206C417.961 247.984 418.923 248.768 419.885 249.534C459.217 280.685 518.838 299.081 587.764 301.337C646.115 303.245 710.304 293.315 783.997 270.978C789.878 269.194 795.992 267.275 802.172 265.274C836.468 254.181 869.592 241.442 904.662 227.957C933.544 216.85 963.41 205.366 993.973 194.896C1075.48 167.1 1146.91 151.336 1218.76 145.282C1241.36 143.342 1260.06 142.722 1277.64 143.332C1300.1 144.111 1319.9 146.902 1338.17 151.864C1373.93 161.618 1403.61 178.317 1432.31 194.466C1440.19 198.901 1447.64 203.092 1455.18 207.123C1529.5 246.851 1604.74 289.72 1685.22 338.181L1685.02 338.28Z" fill="#FFE492"/>
<path d="M1682.11 336.884C1602.4 287.898 1528.48 244.532 1456.14 204.305C1448.65 200.143 1441.25 195.783 1433.42 191.165C1405.51 174.717 1376.66 157.707 1341.24 148.173C1298.65 136.76 1252.66 140.484 1221.78 144.278C1137.95 154.449 1062.83 178.095 1000.4 199.888C977.967 207.752 955.587 216.082 933.941 224.138C890.519 240.299 849.508 255.562 806.457 268.061C800.126 269.9 793.828 271.662 787.732 273.299C752.412 282.768 719.928 289.341 688.425 293.391C652.711 297.982 618.529 299.137 586.819 296.821C554.245 294.441 523.73 288.528 496.129 279.243C467.179 269.505 442.164 256.281 421.774 239.936C420.823 239.169 419.864 238.384 418.927 237.603C403.714 224.91 391.199 211.136 379.094 197.815C375.129 193.45 371.026 188.937 366.904 184.545C348.973 165.394 331.944 150.139 313.315 136.533C310.888 134.76 308.385 132.985 305.87 131.253C260.042 99.6874 199.629 74.0669 131.165 57.1612C49.4502 37.0612 -34.5292 30.3266 -105.302 38.1997C-181.482 46.7869 -253.939 80.9693 -243.326 123.311L-243.598 123.331C-246.231 112.826 -243.953 102.485 -236.83 92.5979C-230.301 83.5387 -219.85 75.0124 -205.764 67.258C-192.628 60.0261 -176.915 53.762 -159.058 48.6364C-142.056 43.7558 -123.485 40.0968 -105.357 38.0528C-68.0852 33.9069 -27.4613 33.7555 15.3885 37.6015C53.9652 41.0631 92.9568 47.5989 131.281 57.0262C199.786 73.9407 260.231 99.576 306.082 131.161C308.596 132.895 311.103 134.671 313.532 136.444C332.172 150.055 349.207 165.319 367.146 184.478C371.268 188.871 375.371 193.385 379.336 197.75C391.438 211.067 403.95 224.836 419.152 237.523C420.089 238.304 421.045 239.087 421.996 239.855C461.634 271.626 520.18 291.805 586.852 296.674C646.649 301.041 712.316 293.35 787.609 273.166C793.701 271.53 800 269.77 806.326 267.93C849.365 255.435 890.371 240.174 933.784 224.015C955.43 215.959 977.813 207.627 1000.25 199.762C1042.23 185.109 1077.15 174.284 1110.15 165.693C1148.99 155.582 1185.48 148.53 1221.72 144.133C1243.8 141.419 1263.06 140.19 1280.58 140.377C1303.13 140.618 1323.01 143.123 1341.36 148.04C1376.82 157.586 1405.7 174.606 1433.62 191.065C1441.45 195.681 1448.85 200.041 1456.33 204.2C1528.68 244.428 1602.6 287.797 1682.32 336.785L1682.11 336.884Z" fill="#FFE492"/>
<path d="M1679.2 335.484C1600.25 285.968 1527.66 242.101 1457.28 201.376C1449.9 197.105 1442.6 192.594 1434.86 187.817C1407.69 171.038 1379.6 153.687 1344.42 144.345C1301.37 132.959 1255.51 138.194 1224.75 143.124C1148.8 155.193 1081.06 178.175 1006.69 204.75C993.273 209.56 979.706 214.526 966.584 219.329C916.12 237.801 863.94 256.9 810.599 270.717C804.119 272.397 797.633 274.002 791.327 275.486C755.767 283.846 721.384 289.585 689.131 292.543C652.593 295.895 617.858 295.763 585.882 292.153C553.763 288.527 523.62 281.421 496.289 271.033C468.63 260.521 444.266 246.801 423.876 230.254C422.933 229.485 421.982 228.699 421.051 227.918C406.297 215.522 393.702 202.196 381.523 189.31C377.135 184.667 372.598 179.867 368.039 175.195C349.407 156.063 332.023 140.939 313.331 127.597C310.877 125.846 308.338 124.085 305.788 122.366C259.388 91.0977 198.53 65.8542 129.791 49.3612C47.5402 29.6917 -36.6673 23.4676 -107.324 31.8366C-181.087 40.6687 -254.882 73.6517 -246.36 117.385L-246.632 117.399C-248.68 106.894 -246.008 96.5661 -238.696 86.7009C-231.972 77.6313 -221.458 69.0976 -207.448 61.3343C-181.6 47.0129 -145.129 36.2081 -107.385 31.6897C-70.1574 27.281 -29.4895 26.8654 13.4895 30.4546C52.1596 33.6847 91.3243 39.9992 129.901 49.2247C198.678 65.7266 259.572 90.9863 306.002 122.27C308.555 123.99 311.094 125.751 313.551 127.504C332.251 140.853 349.643 155.983 368.281 175.123C372.839 179.796 377.379 184.596 381.768 189.239C393.944 202.122 406.536 215.445 421.281 227.835C422.21 228.615 423.161 229.401 424.104 230.17C464.898 263.274 520.859 284.657 585.934 292.006C646.193 298.81 715.256 293.207 791.211 275.35C797.515 273.865 803.995 272.262 810.472 270.583C863.795 256.771 915.969 237.675 966.422 219.206C979.544 214.402 993.111 209.437 1006.53 204.626C1039.08 192.993 1076.96 179.65 1114.56 168.51C1153.89 156.857 1189.9 148.508 1224.67 142.983C1246.55 139.475 1265.8 137.655 1283.51 137.421C1305.84 137.124 1326.37 139.41 1344.53 144.213C1360.29 148.398 1376.15 154.643 1393.02 163.306C1407.92 170.955 1421.72 179.478 1435.06 187.719C1442.79 192.494 1450.1 197.005 1457.48 201.275C1527.86 242.002 1600.45 285.87 1679.4 335.387L1679.2 335.484Z" fill="#FFE492"/>
<path d="M1676.28 334.086C1598.11 284.035 1526.85 239.669 1458.42 198.45C1451.18 194.086 1444 189.439 1436.4 184.519C1409.94 167.391 1382.58 149.679 1347.6 140.522C1314.91 131.991 1275.7 132.466 1227.72 141.974C1160.64 155.192 1100.67 177.302 1037.18 200.713C1029.27 203.628 1021.1 206.641 1012.96 209.617C1009.78 210.786 1006.59 211.957 1003.41 213.126C942.912 235.346 880.359 258.323 814.739 273.378C808.106 274.901 801.439 276.348 794.923 277.678C758.584 285.089 723.23 289.807 689.847 291.698C652.466 293.815 617.173 292.398 584.956 287.488C553.337 282.668 523.565 274.371 496.467 262.825C470.201 251.634 446.491 237.42 425.994 220.574C425.06 219.803 424.117 219.015 423.191 218.233C408.997 206.226 396.444 193.438 384.301 181.071C379.385 176.063 374.298 170.884 369.19 165.843C349.838 146.724 332.102 131.73 313.366 118.659C310.877 116.922 308.307 115.179 305.724 113.477C258.736 82.511 197.428 57.6431 128.419 41.5628C45.6353 22.3252 -38.8057 16.6103 -109.345 25.475C-181.752 34.65 -255.443 67.9032 -249.389 111.461L-249.664 111.473C-251.123 100.966 -248.062 90.6499 -240.56 80.8099C-233.637 71.7299 -223.063 63.1858 -209.128 55.4166C-183.39 41.0655 -147.045 30.1004 -109.408 25.3311C-72.2216 20.6582 -31.5125 19.9784 11.5929 23.3123C50.3564 26.3078 89.6998 32.4027 128.529 41.4262C197.576 57.517 258.923 82.3982 305.93 113.38C308.513 115.083 311.088 116.828 313.578 118.565C332.322 131.644 350.069 146.642 369.426 165.769C374.537 170.81 379.621 175.99 384.54 180.998C396.678 193.362 409.231 206.147 423.419 218.15C424.345 218.932 425.285 219.719 426.219 220.489C467.898 254.743 522.812 277.859 585.027 287.341C646.443 296.702 717.028 293.402 794.824 277.535C801.335 276.205 807.998 274.76 814.629 273.238C880.227 258.189 942.77 235.217 1003.25 213C1006.44 211.829 1009.62 210.659 1012.81 209.491C1020.94 206.515 1029.11 203.502 1037.02 200.588C1100.52 177.173 1160.51 155.057 1227.62 141.833C1249.3 137.537 1268.54 135.128 1286.45 134.464C1308.87 133.635 1329.48 135.628 1347.72 140.387C1363.39 144.488 1379.05 150.762 1395.61 159.565C1410.21 167.333 1423.63 176.021 1436.61 184.423C1444.21 189.341 1451.39 193.987 1458.63 198.349C1527.06 239.569 1598.32 283.937 1676.49 333.989L1676.28 334.086Z" fill="#FFE492"/>
<path d="M1673.37 332.687C1602.02 286.048 1530.09 239.898 1459.57 195.522C1452.39 191.031 1445.28 186.205 1437.74 181.097C1413.24 164.481 1385.48 145.649 1350.78 136.696C1317.71 128.18 1278.43 129.53 1230.69 140.82C1173.92 154.2 1123.68 173.874 1070.49 194.703C1053.84 201.225 1036.61 207.972 1019.24 214.479C988.917 225.863 956.114 237.909 921.728 248.88C884.902 260.63 851.258 269.512 818.873 276.034C812.069 277.404 805.221 278.694 798.513 279.865C761.404 286.341 725.088 290.027 690.576 290.82C652.37 291.696 616.52 289.006 584.016 282.819C523.994 271.253 471.534 247.053 428.096 210.89C427.17 210.118 426.236 209.329 425.315 208.546C411.842 197.069 399.509 184.961 387.583 173.251C381.968 167.739 376.164 162.039 370.325 156.492C350.237 137.378 332.144 122.516 313.386 109.722C310.861 108 308.258 106.274 305.645 104.589C258.085 73.9216 196.326 49.4322 127.048 33.763C43.7285 14.9559 -40.9406 9.75312 -111.364 19.1122C-184.211 28.8482 -256.055 61.6606 -252.42 105.536L-252.695 105.542C-253.566 95.0325 -250.109 84.7279 -242.422 74.9132C-235.3 65.8213 -224.665 57.2683 -210.809 49.4931C-197.756 42.1676 -182.285 35.7625 -164.827 30.4543C-147.877 25.3021 -129.913 21.4367 -111.433 18.9667C-74.2878 14.0311 -33.5347 13.087 9.69711 16.1642C48.5541 18.9296 88.0706 24.8033 127.153 33.625C196.472 49.3031 258.266 73.8073 305.854 104.49C308.467 106.176 311.075 107.904 313.6 109.625C332.367 122.427 350.468 137.294 370.564 156.415C376.404 161.963 382.207 167.663 387.822 173.176C399.748 184.885 412.078 196.992 425.546 208.465C426.464 209.248 427.401 210.037 428.325 210.809C471.73 246.943 524.142 271.124 584.107 282.678C645.874 294.434 719.985 293.413 798.427 279.723C805.13 278.551 811.978 277.263 818.777 275.894C891.184 261.313 957.433 237.499 1019.08 214.356C1036.46 207.849 1053.68 201.104 1070.33 194.581C1123.53 173.748 1173.78 154.069 1230.58 140.683C1278.39 129.375 1317.75 128.026 1350.9 136.561C1366.44 140.57 1381.86 146.855 1398.06 155.772C1412.35 163.635 1425.37 172.465 1437.96 181.004C1445.49 186.111 1452.6 190.936 1459.78 195.424C1530.3 239.802 1602.23 285.951 1673.58 332.592L1673.37 332.687Z" fill="#FFE492"/>
<path d="M1670.46 331.29C1600.2 284.392 1529.63 237.729 1460.72 192.596C1453.76 188.055 1446.86 183.145 1439.55 177.947C1415.66 160.943 1388.57 141.67 1353.97 132.869C1320.5 124.368 1281.15 126.592 1233.66 139.665C1183.9 153.342 1138.18 172.654 1093.97 191.332C1071.8 200.696 1048.88 210.381 1025.52 219.342C988.653 233.5 957.633 244.3 927.897 253.333C891.23 264.47 856.921 272.765 823.013 278.69C816.053 279.908 809.018 281.039 802.107 282.053C766.097 287.333 730.735 290.004 696.907 290.006C695.027 290.006 693.159 289.997 691.29 289.981C652.18 289.636 615.775 285.655 583.084 278.15C567.305 274.507 551.853 269.884 537.159 264.406C523.348 259.258 509.775 253.195 496.818 246.384C473.507 234.132 451.715 219.354 430.204 201.207C429.28 200.426 428.36 199.644 427.445 198.859C414.963 188.152 403.155 176.96 391.737 166.136C385.144 159.888 378.329 153.426 371.465 147.137C350.33 127.76 332.426 113.462 313.407 100.781C310.849 99.0756 308.214 97.3656 305.567 95.6971C257.43 65.334 195.224 41.2217 125.677 25.9637C41.8237 7.58854 -43.0763 2.8964 -113.384 12.7497C-184.866 22.7961 -256.616 55.8577 -255.449 99.6099L-255.723 99.6114C-256.267 79.2323 -241.315 59.8537 -212.486 43.5715C-199.455 36.2119 -184.066 29.7608 -166.743 24.3932C-149.886 19.1712 -131.958 15.2049 -113.453 12.6043C-76.352 7.40448 -35.555 6.19767 7.80325 9.018C46.7536 11.5518 86.446 17.2059 125.778 25.8242C195.369 41.0926 257.612 65.2197 305.779 95.6006C308.425 97.2706 311.066 98.982 313.625 100.688C332.652 113.376 350.563 127.678 371.704 147.063C378.568 153.354 385.386 159.815 391.976 166.063C403.394 176.885 415.2 188.076 427.678 198.78C428.593 199.565 429.511 200.348 430.435 201.127C476.145 239.688 526.112 264.838 583.191 278.014C662.249 296.165 745.835 290.151 802.035 281.91C808.941 280.896 815.97 279.767 822.928 278.549C900.914 264.92 972.077 239.684 1025.36 219.222C1048.72 210.263 1071.64 200.579 1093.8 191.216C1138.02 172.535 1183.75 153.217 1233.53 139.534C1254.78 133.684 1274.02 130.092 1292.33 128.554C1314.91 126.657 1335.69 128.064 1354.08 132.737C1369.58 136.678 1384.86 143.013 1400.79 152.104C1414.83 160.113 1427.51 169.134 1439.77 177.859C1447.08 183.056 1453.97 187.965 1460.93 192.503C1529.84 237.635 1600.41 284.298 1670.67 331.196L1670.46 331.29Z" fill="#FFE492"/>
<path d="M1667.54 329.89L1461.86 189.67C1455.15 185.09 1448.47 180.107 1441.41 174.833C1418.1 157.427 1391.69 137.7 1357.15 129.044C1323.75 120.675 1283.2 123.861 1236.63 138.513C1191.85 152.599 1151.01 171.33 1111.52 189.445C1085.77 201.254 1059.15 213.463 1031.8 224.208C949.595 256.505 877.751 275.581 805.707 284.243C775.819 287.835 746.336 289.643 717.742 289.643C709.075 289.643 700.496 289.477 692.007 289.144C651.974 287.577 615.013 282.307 582.155 273.484C551.702 265.305 523.842 253.759 496.994 238.185C475.554 225.749 455.002 210.923 432.317 191.527C420.344 181.29 408.75 170.655 397.538 160.369C372.163 137.094 345.925 113.026 313.44 91.8442C263.613 59.3555 198.211 33.8775 124.303 18.1638C39.9193 0.222045 -45.2115 -3.96095 -115.404 6.38669C-183.363 16.4048 -257.122 47.9955 -258.48 93.6848L-258.754 93.6818C-258.147 73.2597 -242.728 53.884 -214.165 37.6493C-188.339 22.9702 -153.291 11.8166 -115.476 6.24271C-78.4158 0.780174 -37.5748 -0.690851 5.9071 1.87268C44.951 4.17348 84.8192 9.60929 124.404 18.0257C160.975 25.801 195.707 36.0358 227.639 48.4467C259.838 60.9616 288.777 75.5293 313.649 91.7462C346.147 112.936 372.394 137.01 397.774 160.291C408.986 170.574 420.58 181.209 432.55 191.443C465.648 219.745 512.578 254.629 582.279 273.347C662.213 294.813 747.866 291.04 805.646 284.094C877.655 275.439 949.466 256.37 1031.64 224.085C1058.98 213.344 1085.6 201.135 1111.34 189.33C1150.84 171.211 1191.69 152.475 1236.49 138.383C1283.14 123.705 1323.78 120.517 1357.27 128.908C1372.73 132.783 1387.87 139.174 1403.55 148.447C1417.35 156.609 1429.7 165.829 1441.63 174.744C1448.7 180.018 1455.37 184.998 1462.08 189.576L1667.76 329.797L1667.54 329.89Z" fill="#FFE492"/>
<path d="M1665.89 319.11C1613.51 280.068 1568.57 248.387 1524.47 219.41C1503.06 205.334 1481.19 191.478 1459.48 178.229C1452.91 174.221 1446.4 169.958 1439.51 165.444C1422.2 154.099 1404.3 142.368 1383.69 133.662C1372.63 128.978 1361.98 125.625 1351.14 123.41C1317.85 116.545 1278.8 121.084 1235.07 136.903C1212.43 145.078 1191.82 154.381 1174.64 162.402C1156.46 170.894 1138.52 180.259 1121.18 189.316C1096.24 202.334 1070.46 215.794 1042.74 227.354C1025.88 234.41 1008.79 240.714 991.932 246.093C958.213 256.855 922.022 265.723 884.363 272.45C861.096 276.56 837.716 279.667 814.877 281.683C795.193 283.414 775.473 284.413 756.262 284.652C727.509 285.011 699.496 283.641 672.999 280.576C644.827 277.316 618.165 272.113 593.758 265.11C571.993 258.865 551.435 251.002 530.91 241.07C492.664 222.578 462.158 201.195 439.855 184.632C428.899 176.458 418.201 168.122 407.854 160.06C378.063 136.843 349.923 114.914 314.71 95.3808C285.991 79.5543 253.223 65.8965 217.31 54.7844C189.711 46.2447 159.695 39.2607 128.095 34.0253C120.568 32.7799 112.899 31.6191 105.306 30.5786C72.6154 26.1061 35.814 23.1938 -4.0735 21.9216C-44.288 20.6094 -79.0806 21.745 -110.433 25.3966C-128.157 27.445 -145.33 30.6587 -161.48 34.9471C-218.496 50.0878 -255.108 75.5049 -259.417 102.939L-259.76 102.923C-258.611 95.6094 -255.239 88.4057 -249.741 81.5093C-244.517 74.9587 -237.342 68.6411 -228.416 62.7318C-211.552 51.5692 -188.457 41.9029 -161.631 34.7794C-145.456 30.4836 -128.256 27.2654 -110.504 25.214C-79.1191 21.5594 -44.299 20.4224 -4.05153 21.7361C35.8579 23.0082 72.6786 25.9235 105.391 30.399C112.992 31.441 120.664 32.6018 128.197 33.8487C159.821 39.087 189.862 46.077 217.483 54.6241C253.421 65.7436 286.216 79.4133 314.949 95.2502C350.184 114.795 378.33 136.73 408.132 159.953C418.475 168.015 429.173 176.35 440.127 184.523C462.419 201.078 492.911 222.45 531.136 240.931C551.639 250.852 572.175 258.708 593.914 264.945C641.683 278.65 696.3 285.219 756.251 284.466C775.445 284.227 795.151 283.228 814.819 281.499C837.641 279.483 861.005 276.379 884.253 272.272C921.89 265.549 958.059 256.687 991.756 245.931C1008.6 240.557 1025.68 234.255 1042.53 227.206C1070.23 215.652 1096.01 202.194 1120.93 189.18C1138.29 180.123 1156.22 170.755 1174.42 162.26C1191.6 154.234 1212.22 144.928 1234.87 136.748C1254.35 129.704 1273.2 124.838 1290.92 122.284C1312.68 119.146 1332.98 119.466 1351.26 123.237C1362.14 125.459 1372.82 128.821 1383.91 133.515C1404.54 142.234 1422.45 153.972 1439.78 165.325C1446.67 169.838 1453.17 174.101 1459.73 178.106C1481.46 191.357 1503.32 205.213 1524.74 219.293C1568.84 248.272 1613.79 279.957 1666.17 319.002L1665.89 319.11Z" fill="#FFE492"/>
<path d="M1664.23 308.328C1615.67 268.626 1570.09 235.402 1524.9 206.761C1502.85 192.771 1480.04 179.322 1457.09 166.789C1451 163.464 1444.99 160.009 1438.63 156.351C1419.57 145.398 1399.86 134.072 1377.79 126.236C1366.64 122.262 1355.96 119.496 1345.13 117.777C1303.66 111.192 1261.54 123.667 1233.5 135.291C1213.64 143.502 1195.5 152.787 1177.12 162.372C1161.04 170.762 1145.9 179.787 1129.88 189.34C1106.1 203.522 1081.51 218.186 1053.69 230.499C1037.18 237.845 1019.94 244.197 1002.47 249.378C969.917 259.029 934.273 266.524 893.498 272.292C870.678 275.519 847.309 277.818 824.039 279.123C804.404 280.211 784.805 280.6 765.784 280.275C737.484 279.797 709.823 277.648 683.563 273.888C655.984 269.938 629.669 264.167 605.352 256.734C584.046 250.224 563.475 242.146 542.46 232.04C504.296 213.712 471.603 193.394 447.387 177.74C438.423 171.945 429.602 166.114 421.07 160.473C387.09 138.012 354.996 116.794 315.98 98.919C286.821 85.5595 254.084 74.2634 218.684 65.3452C191.899 58.5972 163.509 53.5413 131.896 49.8883C124.6 49.0466 117.177 48.2881 109.837 47.6335C77.5976 44.7731 43.1897 43.691 1.55997 42.5718C-28.4484 41.7242 -67.7313 41.166 -105.47 44.405C-123.343 45.9101 -140.62 48.5241 -156.825 52.1713C-213.879 65.0156 -252.582 87.4536 -260.359 112.195L-260.766 112.158C-258.705 105.597 -254.528 99.1624 -248.358 93.0304C-242.478 87.1879 -234.75 81.5858 -225.393 76.3756C-207.611 66.4778 -183.956 58.0361 -156.984 51.9649C-140.749 48.3104 -123.439 45.6919 -105.536 44.1838C-67.7615 40.9404 -28.4484 41.5 1.57919 42.3476C43.2227 43.4668 77.6416 44.549 109.903 47.4108C117.249 48.0669 124.677 48.8255 131.981 49.6671C163.624 53.3246 192.042 58.3849 218.857 65.1403C254.292 74.0674 287.057 85.3725 316.246 98.7453C355.29 116.634 387.398 137.857 421.388 160.328C429.918 165.967 438.739 171.798 447.703 177.591C471.913 193.24 504.593 213.551 542.735 231.869C563.725 241.965 584.274 250.034 605.555 256.537C653.37 271.151 707.286 279.061 765.797 280.049C784.803 280.373 804.382 279.986 823.998 278.898C847.246 277.594 870.596 275.298 893.393 272.072C934.135 266.31 969.75 258.821 1002.27 249.179C1019.73 244.004 1036.94 237.661 1053.43 230.323C1081.23 218.02 1105.81 203.362 1129.58 189.187C1145.61 179.629 1160.74 170.603 1176.84 162.209C1195.22 152.618 1213.37 143.33 1233.26 135.11C1251.43 127.574 1269.36 122.153 1286.54 118.994C1307.38 115.164 1327.13 114.682 1345.25 117.558C1356.12 119.285 1366.84 122.061 1378.02 126.046C1400.13 133.897 1419.86 145.233 1438.93 156.195C1445.29 159.851 1451.31 163.306 1457.39 166.629C1480.35 179.166 1503.16 192.619 1525.21 206.614C1570.42 235.263 1616.01 268.492 1664.57 308.204L1664.23 308.328Z" fill="#FFE492"/>
<path d="M1662.57 297.545C1617.12 256.643 1572.23 222.809 1525.32 194.112C1502.65 180.208 1478.89 167.167 1454.71 155.35C1449.55 152.824 1444.23 150.143 1439.08 147.551C1417.84 136.843 1395.87 125.771 1371.88 118.81C1360.63 115.521 1349.91 113.339 1339.13 112.141C1297.75 107.541 1258 121.313 1231.95 133.675C1214.28 142.02 1198.14 151.479 1182.53 160.627L1179.6 162.34C1165.43 170.639 1152.13 179.741 1138.05 189.38C1115.63 204.727 1092.44 220.595 1064.63 233.642C1048.45 241.29 1031.08 247.689 1013 252.662C981.484 261.332 946.408 267.519 902.624 272.132C879.983 274.518 856.625 276.008 833.195 276.56C813.61 277.004 794.132 276.782 775.297 275.895C718.276 273.225 664.998 263.959 616.94 248.357C596.165 241.612 575.58 233.322 554.011 223.008C517.509 205.592 485.044 187.69 454.923 170.847C450.883 168.589 446.888 166.346 442.922 164.121C401.782 141.041 362.925 119.239 317.258 102.46C287.445 91.5052 254.741 82.5721 220.058 75.9072C194.595 71.0147 166.999 67.6927 135.699 65.7511C128.645 65.3162 121.47 64.9584 114.372 64.6883C96.5154 64.0203 77.576 63.9119 57.5237 63.7976C41.4176 63.7056 24.7646 63.6106 7.19104 63.2232C-26.7497 62.4112 -65.2164 61.4924 -100.512 63.4162C-118.723 64.4092 -136.104 66.422 -152.175 69.3997C-209.207 79.9685 -250.004 99.4303 -261.307 121.46L-261.771 121.39C-258.792 115.582 -253.813 109.916 -246.973 104.55C-240.433 99.4184 -232.156 94.5288 -222.373 90.0178C-203.662 81.3906 -179.441 74.1765 -152.334 69.1533C-136.228 66.1682 -118.811 64.1509 -100.564 63.1564C-65.2329 61.2311 -26.747 62.1515 7.20752 62.9634C24.7701 63.3494 41.4231 63.4458 57.5237 63.5379C77.5843 63.6522 96.5291 63.7605 114.402 64.43C121.506 64.7016 128.689 65.0594 135.749 65.4943C167.087 67.4373 194.716 70.7639 220.215 75.6638C254.938 82.3361 287.678 91.2795 317.525 102.246C363.232 119.04 402.109 140.852 443.266 163.943C447.231 166.168 451.229 168.41 455.266 170.669C485.382 187.509 517.836 205.406 554.327 222.817C575.874 233.118 596.437 241.401 617.188 248.137C665.182 263.72 718.392 272.973 775.339 275.64C794.152 276.525 813.61 276.747 833.173 276.304C856.578 275.751 879.915 274.263 902.531 271.88C946.271 267.271 981.305 261.092 1012.78 252.433C1030.82 247.471 1048.16 241.084 1064.31 233.449C1092.09 220.418 1115.26 204.559 1137.66 189.221C1151.75 179.578 1165.06 170.471 1179.24 162.166L1182.17 160.453C1197.79 151.301 1213.94 141.836 1231.62 133.482C1257.76 121.08 1297.65 107.268 1339.22 111.889C1350.05 113.093 1360.81 115.282 1372.11 118.585C1396.15 125.56 1418.14 136.644 1439.41 147.364C1444.55 149.956 1449.87 152.637 1455.03 155.161C1479.22 166.985 1502.99 180.032 1525.68 193.944C1572.6 222.653 1617.51 256.499 1662.97 297.415L1662.57 297.545Z" fill="#FFE492"/>
<path d="M1660.91 286.76C1619.18 245.241 1573.71 209.813 1525.76 181.464C1502.44 167.647 1477.74 155.014 1452.34 143.914C1448.67 142.311 1444.91 140.647 1441.28 139.037C1417.27 128.408 1392.44 117.414 1365.99 111.388C1354.64 108.774 1343.9 107.178 1333.14 106.507C1291.88 103.936 1254.49 118.983 1230.39 132.059C1215.43 140.137 1201.92 149.121 1188.86 157.809C1186.6 159.313 1184.35 160.813 1182.08 162.308C1169.66 170.52 1158.04 179.693 1145.75 189.404C1124.84 205.913 1103.22 222.984 1075.58 236.789C1059.34 244.895 1042.32 251.162 1023.53 255.951C984.243 265.966 944.976 269.672 911.75 271.979C889.277 273.537 865.93 274.22 842.352 274.004C822.827 273.803 803.467 272.967 784.814 271.522C729.504 267.245 676.924 256.635 628.534 239.984C608.399 233.058 587.803 224.553 565.563 213.983C543.098 203.331 522.164 193.081 501.916 183.168C488.157 176.431 475.159 170.067 462.466 163.962C414.485 140.883 370.536 120.591 318.547 106.005C288.093 97.4629 255.422 90.89 221.44 86.471C197.084 83.3033 171.05 81.7611 139.511 81.6141C132.707 81.5874 125.776 81.6304 118.914 81.7432C108.491 81.9258 97.7077 82.3073 86.2952 82.7125C64.3935 83.4889 39.5652 84.3691 12.8215 83.8763C2.63733 83.6878 -7.75291 83.4221 -17.8024 83.1638C-43.6503 82.5003 -70.3775 81.8145 -95.5576 82.4275C-114.049 82.8788 -131.537 84.2919 -147.531 86.6284C-204.467 94.9483 -247.355 111.435 -262.261 130.731L-262.769 130.617C-258.867 125.564 -253.085 120.668 -245.586 116.065C-238.383 111.645 -229.556 107.469 -219.356 103.656C-199.699 96.308 -174.915 90.3215 -147.679 86.3419C-131.647 83.9995 -114.12 82.5819 -95.5878 82.1307C-70.3802 81.5161 -43.642 82.2034 -17.7804 82.8669C-7.73367 83.1252 2.65659 83.3909 12.838 83.5794C39.5569 84.0722 64.3661 83.1935 86.2567 82.4172C97.6748 82.0119 108.461 81.6304 118.895 81.4479C125.765 81.335 132.701 81.292 139.513 81.3187C171.096 81.4642 197.169 83.0109 221.566 86.183C255.59 90.608 288.305 97.1883 318.797 105.743C342.281 112.33 366.079 120.677 391.55 131.258C414.354 140.73 436.536 151.094 462.829 163.741C475.522 169.847 488.52 176.211 502.282 182.949C522.526 192.86 543.461 203.109 565.92 213.76C588.138 224.32 608.713 232.816 628.823 239.735C677.146 256.363 729.653 266.959 784.885 271.229C803.517 272.674 822.852 273.508 842.354 273.708C865.905 273.925 889.228 273.244 911.673 271.685C944.858 269.383 984.072 265.681 1023.29 255.683C1042.03 250.908 1059.01 244.657 1075.2 236.572C1102.8 222.791 1124.4 205.734 1145.29 189.238C1157.59 179.521 1169.21 170.343 1181.65 162.123C1183.91 160.628 1186.17 159.127 1188.43 157.625C1201.5 148.931 1215.01 139.941 1230 131.853C1245.67 123.346 1261.76 116.801 1277.8 112.402C1296.8 107.19 1315.44 105.109 1333.19 106.216C1344 106.89 1354.8 108.493 1366.2 111.118C1392.71 117.161 1417.57 128.167 1441.61 138.81C1445.25 140.419 1449 142.083 1452.67 143.685C1478.09 154.794 1502.81 167.44 1526.15 181.267C1551.61 196.32 1576.55 213.47 1600.26 232.242C1621.22 248.833 1641.79 267.129 1661.38 286.621L1660.91 286.76Z" fill="#FFE492"/>
<path d="M1659.25 275.974C1620.63 233.264 1575.86 197.211 1526.19 168.817C1502.24 155.088 1476.59 142.862 1449.97 132.477C1448.7 131.983 1447.43 131.489 1446.16 130.993C1418.48 120.181 1389.85 109 1360.11 103.967C1348.59 102.016 1337.81 101.006 1327.16 100.875C1286.06 100.373 1251.01 116.678 1228.85 130.442C1215.81 138.495 1204.23 147.321 1193.03 155.856C1190.27 157.967 1187.4 160.149 1184.58 162.275C1173.81 170.371 1163.81 179.575 1153.22 189.322C1133.95 207.05 1114.03 225.381 1086.53 239.933C1070.62 248.353 1053.46 254.667 1034.07 259.239C995.878 268.245 957.095 270.61 920.876 271.824C898.543 272.572 875.204 272.444 851.508 271.445C832.047 270.599 812.81 269.152 794.33 267.145C740.903 261.356 689.02 249.401 640.13 231.61C620.551 224.487 600.529 216.017 577.124 204.955C532.642 183.99 499.611 169.223 470.026 157.077C411.182 132.918 366.271 118.705 319.86 109.553C288.788 103.425 256.15 99.2139 222.847 97.0348C199.742 95.5237 175.221 95.6588 143.344 97.4771C136.812 97.8542 130.129 98.298 123.479 98.7982C117.197 99.2777 110.816 99.8269 104.058 100.407C79.1091 102.552 50.8293 104.984 18.4631 104.529C1.40344 104.29 -16.0218 103.636 -32.8726 103.003C-52.0235 102.285 -71.8257 101.541 -90.6002 101.44C-109.424 101.339 -127.02 102.153 -142.884 103.86C-199.631 109.962 -244.616 123.478 -263.217 140.012L-263.745 139.838C-258.913 135.543 -252.329 131.418 -244.176 127.577C-236.306 123.869 -226.935 120.409 -216.322 117.291C-195.706 111.231 -170.353 106.472 -143.005 103.532C-127.097 101.822 -109.463 101.006 -90.5947 101.106C-71.8038 101.207 -51.9906 101.951 -32.8314 102.671C-15.986 103.303 1.43088 103.958 18.4768 104.197C50.7853 104.65 79.0349 102.221 103.957 100.079C110.717 99.4974 117.103 98.9496 123.388 98.4687C130.046 97.9685 136.735 97.5246 143.273 97.1461C175.199 95.3263 199.761 95.1897 222.916 96.7053C256.266 98.8873 288.95 103.104 320.066 109.241C366.541 118.405 411.498 132.633 470.394 156.812C499.99 168.964 533.032 183.735 577.525 204.706C600.914 215.759 620.914 224.22 640.471 231.336C689.295 249.101 741.101 261.04 794.448 266.82C812.904 268.824 832.118 270.268 851.552 271.114C875.221 272.112 898.529 272.24 920.835 271.493C956.999 270.28 995.716 267.921 1033.82 258.936C1053.14 254.382 1070.24 248.089 1086.09 239.699C1113.53 225.177 1133.44 206.866 1152.68 189.157C1163.28 179.405 1173.29 170.193 1184.07 162.085C1186.9 159.961 1189.76 157.779 1192.53 155.668C1203.73 147.125 1215.32 138.293 1228.38 130.227C1242.84 121.244 1258.01 114.138 1273.45 109.106C1291.53 103.211 1309.61 100.333 1327.17 100.545C1337.89 100.676 1348.72 101.693 1360.3 103.652C1390.13 108.704 1418.8 119.899 1446.52 130.727C1447.79 131.223 1449.06 131.719 1450.33 132.212C1476.98 142.608 1502.66 154.849 1526.64 168.592C1576.35 197.012 1621.16 233.093 1659.8 275.833L1659.25 275.974Z" fill="#FFE492"/>
<path d="M934.55 271.67C933.009 271.67 931.489 271.668 929.994 271.664C907.776 271.613 884.446 270.678 860.656 268.882C841.266 267.39 822.151 265.331 803.841 262.765C777.68 259.104 751.425 253.844 725.8 247.13C701.054 240.646 676.132 232.607 651.724 223.233C627.809 214.049 605.47 203.815 588.68 195.926C549.394 177.517 512.015 162.129 477.583 150.191C421.814 130.855 372.116 119.067 321.177 113.096C290.445 109.493 257.475 107.593 225.73 107.593C225.238 107.593 224.749 107.593 224.257 107.595C196.985 107.645 171.094 110.382 147.18 113.333C140.956 114.107 134.517 114.951 128.043 115.846C124.495 116.342 120.942 116.853 117.183 117.393C90.6674 121.209 60.6123 125.533 24.0994 125.179C1.86243 124.962 -20.8499 123.718 -42.8148 122.514C-56.9974 121.736 -71.6608 120.933 -85.6482 120.448C-104.876 119.781 -122.571 119.995 -138.245 121.086C-194.689 125.011 -241.771 135.556 -264.192 149.295L-264.709 149.051C-253.209 142.004 -235.91 135.903 -213.294 130.916C-191.694 126.154 -165.772 122.627 -138.333 120.72C-122.617 119.627 -104.876 119.41 -85.6042 120.08C-71.6031 120.565 -56.9314 121.37 -42.7434 122.148C-20.7922 123.351 1.90637 124.595 24.1131 124.811C60.5326 125.165 90.5354 120.847 117.007 117.038C120.769 116.497 124.322 115.986 127.873 115.49C134.353 114.595 140.797 113.749 147.026 112.976C170.981 110.02 196.917 107.279 224.254 107.227C256.505 107.166 290.066 109.072 321.322 112.737C347.612 115.82 373.1 120.357 399.237 126.61C424.409 132.632 450.157 140.244 477.951 149.882C512.411 161.83 549.817 177.229 589.127 195.65C605.904 203.535 628.226 213.761 652.117 222.934C701.645 241.955 752.75 255.236 804.011 262.41C822.297 264.974 841.387 267.029 860.75 268.52C884.509 270.313 907.807 271.248 929.994 271.297C964.713 271.374 1005.03 270.742 1044.34 262.184C1064.25 257.853 1081.46 251.519 1096.98 242.822C1124.23 227.548 1142.3 207.944 1159.77 188.983C1168.76 179.231 1177.25 170.019 1186.48 162.045C1189.44 159.49 1192.42 156.858 1195.31 154.313C1205.06 145.712 1215.14 136.821 1226.75 128.602C1240.02 119.146 1254.27 111.476 1269.08 105.806C1286.26 99.2317 1303.77 95.5534 1321.13 94.8735C1331.84 94.4534 1342.72 94.8824 1354.37 96.1857C1385.54 99.6681 1416.43 109.786 1447.97 120.736C1475.46 130.283 1502.83 142.448 1527.11 155.916C1554.07 170.832 1579.41 188.332 1602.42 207.927C1622.91 225.385 1641.68 244.602 1658.21 265.045L1657.58 265.193C1622.09 221.291 1578.03 184.612 1526.62 156.176C1502.37 142.727 1475.05 130.58 1447.59 121.049C1416.11 110.118 1385.28 100.02 1354.23 96.5494C1342.64 95.2535 1331.83 94.8275 1321.18 95.2446C1289.28 96.4959 1255.94 108.421 1227.3 128.827C1215.71 137.032 1205.63 145.916 1195.89 154.507C1193.01 157.054 1190.02 159.688 1187.06 162.242C1177.85 170.202 1169.37 179.406 1160.39 189.15C1151.81 198.452 1142.95 208.073 1132.78 217.32C1121.24 227.805 1109.7 236.23 1097.48 243.08C1081.89 251.816 1064.6 258.178 1044.6 262.53C1026.97 266.369 1008.02 268.906 986.661 270.289C968.576 271.454 950.412 271.67 934.55 271.67Z" fill="#FFE492"/>
<path d="M978.618 272.414C964.606 272.414 951.146 271.963 939.104 271.506C916.963 270.666 893.644 268.922 869.796 266.321C850.489 264.185 831.494 261.516 813.341 258.385C763.632 249.831 714.555 235.591 663.307 214.856C640.958 205.814 619.889 196.086 600.229 186.897C561.417 168.81 522.697 154.145 485.14 143.306C429.905 127.365 378.225 118.89 322.501 116.637C290.751 115.353 257.269 115.877 225.672 118.151C199.225 120.054 174.292 124.647 151.017 129.186C145.194 130.328 139 131.575 132.61 132.891C131.014 133.222 129.404 133.559 127.771 133.899C100.964 139.498 70.6317 145.834 31.7032 145.834C31.0465 145.834 30.3925 145.832 29.7302 145.828C3.39319 145.684 -23.4962 143.653 -49.5034 141.688C-59.8139 140.908 -70.4763 140.104 -80.7071 139.452C-100.691 138.182 -117.998 137.806 -133.62 138.308C-190.441 140.133 -238.402 147.52 -265.201 158.577L-265.66 158.252C-252.411 152.786 -233.255 148.041 -210.268 144.529C-187.657 141.075 -161.169 138.783 -133.667 137.899C-118 137.396 -100.649 137.772 -80.6219 139.045C-70.3801 139.697 -59.715 140.503 -49.4017 141.281C-23.4192 143.243 3.4454 145.272 29.7329 145.416C69.472 145.636 100.299 139.195 127.494 133.515C129.123 133.175 130.736 132.838 132.333 132.505C138.728 131.187 144.924 129.94 150.753 128.799C174.067 124.251 199.047 119.652 225.565 117.743C257.211 115.466 290.748 114.941 322.551 116.226C350.165 117.342 376.494 119.979 403.04 124.283C430.38 128.717 457.349 134.819 485.489 142.942C523.093 153.796 561.862 168.479 600.716 186.584C620.367 195.77 641.422 205.492 663.753 214.525C714.932 235.232 763.934 249.451 813.564 257.992C831.689 261.117 850.659 263.783 869.939 265.916C893.753 268.513 917.04 270.256 939.148 271.093C976.351 272.503 1015.93 273.228 1054.86 265.424C1075.35 261.317 1092.69 254.943 1107.86 245.937C1134.89 229.896 1151.72 208.014 1166.57 188.708C1174.04 178.995 1181.09 169.82 1188.88 161.998C1191.69 159.177 1194.52 156.26 1197.25 153.439C1205.8 144.615 1214.64 135.49 1225.11 126.968C1237.22 117.041 1250.55 108.807 1264.71 102.495C1280.98 95.2472 1297.92 90.7703 1315.07 89.1924C1325.79 88.2053 1336.71 88.0479 1348.44 88.707C1381.21 90.5521 1414.5 99.6692 1445.6 109.248C1474.31 118.092 1502.66 129.842 1527.58 143.228C1555.29 158.075 1580.83 175.75 1603.48 195.758C1623.74 213.651 1641.62 233.328 1656.62 254.245L1655.92 254.392C1624.02 209.929 1579.46 171.589 1527.04 143.516C1502.18 130.155 1473.88 118.427 1445.23 109.601C1414.2 100.045 1381 90.9499 1348.36 89.1122C1336.7 88.4561 1325.86 88.6135 1315.21 89.5932C1283.54 92.507 1251.77 105.859 1225.75 127.191C1215.3 135.695 1206.47 144.811 1197.92 153.627C1195.19 156.448 1192.36 159.365 1189.55 162.19C1181.78 169.993 1174.73 179.159 1167.27 188.863C1152.4 208.198 1135.54 230.115 1108.42 246.21C1093.16 255.265 1075.73 261.675 1055.13 265.806C1037.25 269.389 1017.96 271.464 996.161 272.146C990.267 272.339 984.397 272.414 978.618 272.414Z" fill="#FFE492"/>
<path d="M1006.28 274.021C1006.08 274.021 1005.88 274.021 1005.68 274.021C985.875 273.994 966.433 272.685 948.213 271.346C926.106 269.722 902.8 267.167 878.939 263.756C859.719 260.979 840.846 257.697 822.846 254.004C775.124 244.226 728.114 229.126 674.898 206.478C655.734 198.325 636.874 189.545 618.633 181.055C616.352 179.993 614.068 178.931 611.785 177.87C572.771 159.787 532.708 145.841 492.71 136.421C437.94 123.524 382.702 118.209 323.839 120.176C291.564 121.255 258.112 124.205 227.101 128.706C202.632 132.258 180.83 137.956 154.866 145.037C149.604 146.478 143.984 148.034 137.186 149.934L136.806 150.041C123.69 153.731 108.823 157.912 92.1483 161.092C72.9974 164.743 54.418 166.501 35.366 166.48C5.65723 166.44 -24.6617 163.453 -53.9803 160.563C-61.1636 159.855 -68.5942 159.124 -75.7665 158.462C-96.3354 156.566 -113.747 155.609 -128.996 155.536C-185.143 155.269 -235.163 159.763 -266.226 167.865L-266.583 167.464C-251.368 163.495 -230.843 160.274 -207.229 158.148C-183.571 156.018 -156.514 154.961 -128.987 155.092C-113.695 155.165 -96.2393 156.124 -75.6264 158.024C-68.4486 158.686 -61.0179 159.417 -53.8319 160.126C-24.549 163.011 5.73141 165.995 35.3688 166.035C35.5007 166.035 35.6353 166.035 35.7672 166.035C78.1609 166.035 110.458 156.95 136.427 149.646L136.809 149.539C143.61 147.637 149.23 146.082 154.495 144.64C180.503 137.548 202.344 131.839 226.889 128.277C257.953 123.767 291.459 120.813 323.79 119.732C352.594 118.771 379.764 119.504 406.857 121.977C436.052 124.641 464.244 129.233 493.04 136.015C533.114 145.452 573.246 159.42 612.323 177.533C614.607 178.594 616.89 179.657 619.171 180.72C637.404 189.206 656.259 197.983 675.407 206.131C728.553 228.75 775.495 243.83 823.137 253.591C841.112 257.28 859.958 260.556 879.15 263.33C902.978 266.737 926.251 269.287 948.323 270.908C987.859 273.814 1026.56 275.83 1065.39 268.682C1086.47 264.801 1103.92 258.387 1118.75 249.071C1145.55 232.243 1160.18 208.925 1173.1 188.35C1179.14 178.717 1184.85 169.618 1191.29 161.972C1193.77 159.03 1196.26 155.987 1198.66 153.044C1206.18 143.84 1213.96 134.325 1223.49 125.354C1234.46 114.95 1246.87 106.15 1260.35 99.2004C1275.72 91.2798 1292.09 86.0072 1309.03 83.5313C1319.53 81.9964 1330.24 81.2483 1341.76 81.2483C1342.01 81.2483 1342.26 81.2483 1342.51 81.2498C1378.31 81.3507 1415.14 90.1353 1443.24 97.7769C1473.17 105.919 1502.5 117.254 1528.06 130.557C1556.53 145.335 1582.27 163.183 1604.56 183.607C1624.57 201.935 1641.55 222.073 1655.04 243.466L1654.26 243.61C1634.19 211.779 1595.89 166.384 1527.48 130.879C1501.99 117.605 1472.72 106.297 1442.87 98.1747C1414.85 90.5539 1378.13 81.7945 1342.51 81.6951C1330.78 81.658 1319.9 82.4031 1309.25 83.9617C1277.87 88.55 1247.67 103.328 1224.2 125.575C1214.69 134.526 1206.93 144.03 1199.42 153.223C1197.01 156.168 1194.52 159.213 1192.05 162.156C1185.62 169.783 1179.92 178.87 1173.88 188.492C1160.94 209.104 1146.28 232.467 1119.38 249.361C1104.45 258.739 1086.88 265.196 1065.66 269.102C1047.68 272.41 1028.25 274.021 1006.28 274.021Z" fill="#FFE492"/>
<path d="M1028.27 276.111C1024 276.111 1019.65 276.037 1015.18 275.888C995.65 275.24 976.667 273.293 957.321 271.186C934.894 268.742 912.245 265.474 888.079 261.193C868.958 257.776 850.208 253.884 832.349 249.622C787.042 238.828 742.057 222.937 686.49 198.101C672.689 191.933 658.894 185.464 645.553 179.207C638.29 175.802 630.782 172.28 623.343 168.84C583.865 150.636 542.463 137.413 500.287 129.537C444.56 119.13 387.286 117.224 325.186 123.711C292.377 127.138 258.956 132.513 228.538 139.254C204.103 144.669 182.817 152.273 160.28 160.324L158.722 160.881C155.202 162.143 151.643 163.422 148.041 164.717C145.966 165.463 143.877 166.214 141.77 166.972C128.629 171.717 114.435 176.668 98.1586 180.478C79.2605 184.901 60.5685 187.077 41.0081 187.131C8.44406 187.217 -24.7712 183.129 -56.89 179.172C-61.4737 178.606 -66.2168 178.023 -70.8197 177.469C-92.3999 174.871 -109.413 173.377 -124.368 172.762C-179.553 170.495 -231.634 172.093 -267.259 177.145L-267.487 176.679C-231.768 171.613 -179.581 170.01 -124.299 172.281C-109.303 172.897 -92.246 174.396 -70.6246 176.999C-66.0189 177.554 -61.2759 178.137 -56.6894 178.703C-24.9636 182.611 7.8313 186.65 39.9638 186.65C40.3101 186.65 40.6564 186.65 41.0054 186.649C82.5664 186.536 112.151 177.086 141.278 166.571C143.385 165.814 145.474 165.063 147.549 164.316C151.151 163.02 154.707 161.742 158.23 160.479L159.788 159.922C182.363 151.858 203.685 144.24 228.2 138.807C258.673 132.053 292.152 126.669 325.018 123.236C387.275 116.733 444.703 118.644 500.581 129.08C542.862 136.977 584.36 150.229 623.926 168.474C631.365 171.914 638.875 175.435 646.138 178.842C659.474 185.097 673.266 191.565 687.059 197.728C742.56 222.536 787.482 238.405 832.709 249.181C850.544 253.435 869.266 257.323 888.359 260.734C912.489 265.009 935.106 268.273 957.499 270.712C991.492 274.416 1033.8 279.026 1075.93 271.925C1097.59 268.275 1115.16 261.821 1129.64 252.193C1156.18 234.558 1168.48 209.756 1179.34 187.875C1184.05 178.369 1188.51 169.39 1193.71 161.938C1195.73 159.035 1197.76 156.032 1199.73 153.127C1206.31 143.385 1213.12 133.312 1221.86 123.731C1231.73 112.843 1243.21 103.478 1255.98 95.8962C1270.46 87.3046 1286.27 81.2379 1302.98 77.8639C1313.7 75.6982 1324.69 74.3638 1336.57 73.7834C1352.49 73.0055 1369.43 73.8368 1388.37 76.3187C1404.39 78.4206 1421.56 81.6833 1440.88 86.2952C1472.02 93.7335 1502.33 104.654 1528.53 117.875C1557.77 132.584 1583.71 150.609 1605.64 171.447C1625.39 190.211 1641.48 210.811 1653.46 232.678L1652.6 232.814C1627.3 186.65 1583.02 145.956 1527.92 118.229C1501.79 105.043 1471.57 94.1536 1440.51 86.7376C1398.9 76.8011 1365.9 72.8363 1336.65 74.2643C1324.85 74.8402 1313.94 76.1658 1303.29 78.3152C1263.54 86.3412 1237.5 107.559 1222.66 123.944C1213.94 133.5 1207.14 143.561 1200.56 153.291C1198.6 156.198 1196.57 159.202 1194.54 162.107C1189.36 169.537 1184.91 178.505 1180.2 187.999C1169.32 209.928 1156.99 234.783 1130.34 252.497C1115.74 262.201 1098.02 268.707 1076.19 272.387C1061.39 274.88 1045.61 276.111 1028.27 276.111Z" fill="#FFE492"/>
<path d="M1047.32 278.507C1018.26 278.507 990.324 274.474 966.422 271.024C943.935 267.78 921.297 263.724 897.213 258.628C878.2 254.576 859.571 250.072 841.846 245.241C788.713 230.774 741.346 210.009 698.075 189.723C689.24 185.582 680.315 181.313 671.686 177.185C659.705 171.452 647.314 165.525 634.898 159.813C594.829 141.429 552.09 128.926 507.869 122.651C450.663 114.536 391.347 116.037 326.532 127.241C293.16 133.009 259.772 140.81 229.975 149.799C206.994 156.731 187.549 165.483 166.963 174.749C165.504 175.405 164.042 176.064 162.572 176.723L161.775 177.082C156.771 179.337 151.596 181.667 146.35 184.007C133.781 189.637 119.939 195.46 103.929 199.909C85.3445 205.073 66.6084 207.649 46.6441 207.782C11.6014 208.018 -24.1146 202.697 -58.6517 197.55C-61.0727 197.19 -63.4827 196.83 -65.8817 196.476C-88.6573 193.1 -105.272 191.099 -119.748 189.986C-173.549 185.85 -227.696 184.55 -268.306 186.419L-268.389 185.901C-227.712 184.028 -173.486 185.329 -119.614 189.471C-105.096 190.587 -88.4457 192.593 -65.6289 195.974C-63.2299 196.329 -60.8199 196.688 -58.3961 197.05C-23.925 202.186 11.7223 207.494 46.6304 207.263C89.9858 206.972 120.519 194.899 145.735 183.606C150.981 181.267 156.155 178.936 161.159 176.683L161.956 176.324C163.427 175.663 164.889 175.006 166.348 174.349C186.969 165.068 206.447 156.301 229.505 149.345C259.357 140.339 292.809 132.525 326.238 126.747C356.967 121.436 385.829 118.369 414.472 117.371C446.423 116.26 477.926 117.867 508.11 122.15C552.472 128.443 595.338 140.982 635.519 159.417C647.943 165.131 660.337 171.06 672.321 176.794C680.95 180.922 689.87 185.19 698.702 189.33C741.928 209.593 789.238 230.336 842.275 244.776C859.975 249.6 878.576 254.098 897.562 258.144C921.61 263.233 944.212 267.282 966.666 270.523C1001.14 275.498 1044.05 281.691 1086.45 275.175C1108.69 271.755 1126.38 265.261 1140.52 255.321C1166.78 236.857 1176.61 210.528 1185.28 187.298C1188.76 177.964 1192.05 169.148 1196.11 161.909C1197.61 159.231 1199.11 156.464 1200.57 153.788C1206.27 143.32 1212.16 132.494 1220.22 122.114C1228.99 110.733 1239.55 100.8 1251.59 92.5926C1265.19 83.3315 1280.43 76.4707 1296.91 72.2001C1307.61 69.4273 1318.64 67.505 1330.62 66.322C1346.77 64.7292 1364.69 64.7827 1383.88 66.4808C1400.68 67.9681 1419.06 70.7721 1438.49 74.8171C1470.85 81.5517 1502.15 92.0567 1528.99 105.196C1558.98 119.837 1585.13 138.036 1606.7 159.289C1626.19 178.489 1641.39 199.553 1651.87 221.893L1650.93 222.02C1628.73 174.683 1585.2 133.331 1528.35 105.582C1501.59 92.4857 1470.4 82.0149 1438.15 75.3025C1396.34 66.6025 1361.23 63.8312 1330.8 66.8341C1318.9 68.0082 1307.95 69.9171 1297.32 72.6692C1258.12 82.8298 1234.24 105.274 1221.11 122.314C1213.07 132.668 1207.18 143.479 1201.49 153.933C1200.04 156.61 1198.53 159.378 1197.03 162.059C1192.98 169.274 1189.7 178.078 1186.22 187.4C1182.05 198.576 1177.32 211.242 1170.46 223.117C1162.6 236.723 1153.05 247.36 1141.28 255.637C1134.48 260.423 1126.66 264.496 1118.04 267.744C1108.76 271.237 1098.22 273.906 1086.71 275.675C1073.54 277.701 1060.32 278.507 1047.32 278.507Z" fill="#FFE492"/>
<path d="M1064.5 281.135C1054.89 281.135 1044.83 280.63 1034.19 279.622C1013.25 277.638 993.209 274.037 975.523 270.862C953.231 266.858 929.956 261.878 906.347 256.061C887.455 251.379 868.947 246.264 851.343 240.855C800.815 225.347 757.284 204.728 709.661 181.343C705.429 179.265 701.131 177.145 696.976 175.094C680.612 167.02 663.692 158.672 646.454 150.784C605.72 132.185 561.644 120.403 515.45 115.766C457.181 109.916 394.07 114.963 327.879 130.768C293.913 138.879 260.555 149.104 231.412 160.339C209.47 168.798 191.407 178.772 172.283 189.332C170.341 190.405 168.389 191.481 166.427 192.562C161.544 195.255 156.284 198.145 150.934 201.038C139.714 207.125 126.04 214.062 109.703 219.336C91.4147 225.241 72.632 228.217 52.2857 228.432C15.039 228.828 -22.8754 222.166 -59.5421 215.724L-60.9381 215.479C-78.8909 212.326 -97.8825 209.141 -115.124 207.207C-167.677 201.312 -222.447 197.22 -269.342 195.684L-269.279 195.128C-222.335 196.666 -167.514 200.762 -114.915 206.662C-97.6242 208.602 -78.5996 211.792 -60.6194 214.949L-59.2234 215.194C-22.6363 221.622 15.2012 228.267 52.2664 227.874C95.0723 227.42 124.635 214.517 150.206 200.641C155.556 197.75 160.81 194.86 165.694 192.169C167.656 191.089 169.607 190.012 171.55 188.94C190.706 178.362 208.802 168.371 230.816 159.883C260.014 148.626 293.435 138.382 327.464 130.256C358.519 122.842 389.08 117.733 418.291 115.073C451.669 112.034 484.422 112.082 515.643 115.215C562.013 119.87 606.25 131.693 647.121 150.356C664.374 158.252 681.301 166.603 697.674 174.681C701.829 176.731 706.127 178.851 710.359 180.929C757.935 204.291 801.42 224.889 851.857 240.369C869.436 245.77 887.917 250.877 906.782 255.553C930.357 261.362 953.594 266.334 975.853 270.332C1010.74 276.599 1054.17 284.396 1096.99 278.422C1119.83 275.235 1137.63 268.702 1151.41 258.448C1177.38 239.128 1184.9 210.009 1190.94 186.611C1193.29 177.497 1195.51 168.889 1198.52 161.883C1199.47 159.674 1200.43 157.398 1201.36 155.197C1206.17 143.761 1211.14 131.935 1218.6 120.5C1230.13 102.703 1252.02 78.8967 1290.86 66.5421C1301.58 63.131 1312.65 60.6195 1324.69 58.8649C1356.18 54.2084 1393.68 55.7151 1436.13 63.3403C1469.7 69.3714 1501.98 79.4607 1529.47 92.5189C1560.22 107.09 1586.57 125.463 1607.78 147.134C1617.52 157.073 1626.11 167.69 1633.35 178.687C1640.26 189.192 1645.95 200.101 1650.29 211.111L1649.28 211.227C1630.19 162.714 1587.4 120.704 1528.79 92.936C1501.4 79.9268 1469.25 69.8761 1435.8 63.8673C1393.55 56.2761 1356.25 54.774 1324.96 59.4008C1313.01 61.142 1302.03 63.6342 1291.38 67.0201C1252.8 79.2885 1231.04 102.973 1219.58 120.682C1212.13 132.088 1207.17 143.898 1202.36 155.319C1201.44 157.52 1200.48 159.797 1199.53 162.007C1196.53 168.99 1194.31 177.586 1191.96 186.687C1188.92 198.461 1185.48 211.805 1179.59 224.4C1172.83 238.873 1163.88 250.117 1152.25 258.774C1145.61 263.713 1137.84 267.878 1129.17 271.153C1119.82 274.681 1109.08 277.308 1097.24 278.959C1086.85 280.411 1076 281.135 1064.5 281.135Z" fill="#FFE492"/>
<path d="M1080.33 283.912C1068.81 283.912 1056.67 283.106 1043.7 281.49C1022.68 278.873 1002.46 274.529 984.622 270.697C962.162 265.872 938.9 260.085 915.482 253.493C896.713 248.186 878.328 242.459 860.84 236.47C812.717 220.001 771.442 198.774 727.742 176.303C725.58 175.191 723.417 174.078 721.249 172.965C700.927 162.527 679.916 151.732 658.012 141.757C616.569 122.922 571.158 111.86 523.04 108.88C462.6 105.134 397.392 113.686 329.225 134.294C295.128 144.601 260.901 157.594 232.849 170.878C211.668 180.908 194.679 192.194 176.694 204.143C174.564 205.557 172.429 206.977 170.277 208.399C165.979 211.244 160.865 214.618 155.512 218.069C145.597 224.477 132.088 232.621 115.473 238.747C97.4766 245.383 78.6526 248.766 57.9243 249.086C40.8867 249.316 22.0847 247.895 0.441315 244.741C-18.1408 242.033 -36.1155 238.494 -56.0057 234.487C-74.1618 230.783 -93.3237 226.958 -110.515 224.431C-161.439 216.947 -215.229 210.394 -270.387 204.949L-270.189 204.366C-214.998 209.812 -161.178 216.371 -110.227 223.858C-92.9885 226.392 -73.7991 230.223 -55.621 233.93C-22.282 240.65 19.2103 249.016 57.8941 248.492C102.121 247.809 130.543 233.283 154.668 217.686C160.019 214.238 165.13 210.866 169.425 208.022C171.577 206.6 173.712 205.18 175.839 203.767C193.855 191.799 210.874 180.494 232.124 170.431C260.233 157.121 294.526 144.103 328.689 133.776C397.063 113.106 462.496 104.532 523.166 108.29C546.428 109.732 569.278 113.079 591.075 118.239C614.464 123.774 637.223 131.536 658.721 141.304C680.65 151.29 701.675 162.09 722.007 172.536C724.176 173.651 726.341 174.762 728.504 175.874C772.161 198.326 813.401 219.531 861.431 235.97C878.894 241.95 897.251 247.669 915.993 252.967C939.378 259.549 962.605 265.329 985.031 270.146C1020.28 277.716 1064.14 287.138 1107.52 281.674C1131.01 278.714 1148.93 272.141 1162.29 261.581C1188.04 241.411 1192.62 210.6 1196.3 185.843C1197.62 176.989 1198.87 168.626 1200.93 161.863C1201.36 160.468 1201.78 159.065 1202.21 157.655C1206.06 144.917 1210.05 131.745 1216.97 118.89C1226.86 100.401 1246.65 75.3296 1284.8 60.8895C1295.44 56.8609 1306.54 53.7615 1318.74 51.4132C1335.7 48.1193 1354.6 46.5711 1374.91 46.8086C1393.45 47.0253 1413.25 48.7279 1433.75 51.8674C1468.54 57.1919 1501.8 66.8656 1529.94 79.8421C1561.45 94.3415 1588 112.893 1608.85 134.98C1618.42 145.113 1626.71 155.948 1633.48 167.182C1639.96 177.941 1645.09 189.094 1648.7 200.332L1647.61 200.433C1631.88 151.462 1588.73 107.673 1529.23 80.2933C1501.2 67.3733 1468.09 57.7396 1433.45 52.4359C1390.74 45.8957 1351.2 45.7354 1319.1 51.9698C1307 54.3003 1295.98 57.3759 1285.42 61.3734C1247.54 75.714 1227.87 100.656 1218.03 119.054C1211.12 131.874 1207.14 145.027 1203.29 157.748C1202.87 159.159 1202.44 160.563 1202.01 161.958C1199.96 168.696 1198.71 177.048 1197.4 185.889C1193.7 210.717 1189.1 241.618 1163.2 261.917C1156.76 267.007 1149.05 271.267 1140.31 274.575C1130.9 278.135 1119.95 280.718 1107.77 282.253C1098.97 283.357 1089.87 283.912 1080.33 283.912Z" fill="#FFE492"/>
<path d="M1095.2 286.801C1082.08 286.801 1068.18 285.655 1053.2 283.354C1032.01 280.099 1011.66 275.015 993.716 270.531C971.033 264.863 947.782 258.265 924.608 250.924C905.974 245.001 887.714 238.661 870.33 232.084C827.524 215.892 790.939 196.056 752.206 175.055C745.875 171.622 739.326 168.073 732.83 164.583C709.994 152.322 690.494 142.212 669.562 132.728C627.38 113.643 580.636 103.302 530.625 101.989C467.784 100.34 400.471 112.393 330.561 137.813C295.832 150.443 261.636 165.925 234.274 181.41C213.661 193.076 197.546 205.775 180.487 219.219C178.373 220.884 176.252 222.555 174.117 224.228C170.313 227.213 165.279 231.147 160.083 235.091C138.214 251.728 109.643 268.856 63.5557 269.732C62.1185 269.757 60.6758 269.769 59.2358 269.769C23.2478 269.769 -13.4932 262.076 -51.0806 253.486L-53.4274 252.945C-72.0452 248.652 -89.6325 244.599 -105.912 241.648C-167.261 230.527 -226.594 221.139 -271.43 214.204L-271.109 213.597C-226.261 220.535 -166.912 229.924 -105.541 241.049C-89.2175 244.008 -71.611 248.068 -52.9684 252.365L-50.6244 252.905C-11.6602 261.81 26.3915 269.753 63.5145 269.103C109.09 268.236 137.422 251.24 159.129 234.727C164.323 230.786 169.352 226.856 173.155 223.872C175.29 222.198 177.409 220.528 179.522 218.862C196.609 205.397 212.748 192.678 233.427 180.975C260.844 165.457 295.109 149.944 329.907 137.289C362.205 125.545 394.513 116.527 425.934 110.484C461.985 103.551 497.229 100.481 530.68 101.358C580.95 102.677 627.93 113.069 670.31 132.243C691.271 141.741 710.791 151.862 733.649 164.133C740.148 167.623 746.696 171.174 753.03 174.607C791.725 195.587 828.274 215.404 870.997 231.563C888.357 238.133 906.59 244.462 925.196 250.376C948.337 257.709 971.553 264.296 994.202 269.955C1029.76 278.839 1074 289.895 1118.04 284.917C1142.12 282.197 1160.15 275.585 1173.17 264.706C1198.59 243.617 1200.11 211.072 1201.34 184.922C1201.74 176.39 1202.12 168.329 1203.33 161.835L1203.36 161.687C1206.08 147.144 1208.89 132.108 1215.33 117.271C1220.92 104.33 1228.69 92.6956 1238.44 82.6879C1249.43 71.4051 1262.98 62.1663 1278.72 55.2268C1289.25 50.5836 1300.39 46.8949 1312.78 43.9514C1346.24 35.9521 1387.25 34.7171 1431.36 40.383C1449.12 42.663 1466.63 46.1171 1483.42 50.6475C1500.31 55.2045 1516.12 60.7606 1530.4 67.1583C1562.68 81.588 1589.43 100.315 1609.92 122.82C1628.34 143.047 1641.2 166.122 1647.11 189.547L1645.95 189.632C1633.31 139.495 1590.92 95.032 1529.66 67.6437C1501.01 54.8156 1466.93 45.6006 1431.1 41.0005C1387.23 35.3672 1346.48 36.5889 1313.26 44.5333C1300.97 47.4546 1289.92 51.1136 1279.47 55.7196C1250.08 68.6768 1228.3 90.0119 1216.48 117.418C1210.05 132.216 1207.24 147.232 1204.53 161.754L1204.5 161.902C1203.29 168.372 1202.91 176.421 1202.51 184.941C1201.28 211.172 1199.74 243.815 1174.15 265.052C1167.87 270.298 1160.22 274.65 1151.42 277.987C1141.94 281.585 1130.79 284.125 1118.28 285.539C1110.84 286.38 1103.16 286.801 1095.2 286.801Z" fill="#FFE492"/>
<path d="M64.4097 290.438C48.3174 290.438 30.7932 288.744 11.0158 285.286C-8.63528 281.849 -28.0693 277.105 -46.1458 272.492C-49.4186 271.651 -52.6668 270.813 -55.893 269.98C-71.9524 265.834 -87.1214 261.918 -101.298 258.868C-157.828 246.709 -211.711 235.781 -263.822 225.215L-272.456 223.464L-272.022 222.839L-263.387 224.591C-211.274 235.159 -157.383 246.087 -100.842 258.249C-86.6268 261.307 -71.4385 265.227 -55.3598 269.379C-52.1364 270.212 -48.8883 271.05 -45.6181 271.889C-8.51166 281.359 30.9114 290.537 69.1473 289.719C116.149 288.662 144.317 268.885 163.602 251.774C168.543 247.398 173.303 243.037 176.897 239.727C178.881 237.902 180.851 236.08 182.816 234.261C199.112 219.187 214.504 204.949 234.746 191.524C261.465 173.807 295.697 155.795 331.141 140.81C364.023 126.908 397.206 115.923 429.77 108.163C467.121 99.261 503.603 94.6416 538.204 94.4323C590.268 94.0137 638.624 103.689 681.911 123.186C705.907 134.007 727.421 145.713 745.305 155.737C755.036 161.192 764.767 166.784 774.179 172.192C807.493 191.336 841.942 211.13 880.576 227.163C897.834 234.327 915.949 241.268 934.413 247.791C957.263 255.847 980.467 263.242 1003.39 269.771C1039.21 279.974 1083.79 292.673 1128.58 288.167C1153.23 285.686 1171.38 279.036 1184.05 267.837C1209.13 245.792 1207.44 211.464 1206.08 183.881C1205.68 175.725 1205.29 168.019 1205.75 161.816C1206.78 147.832 1208.33 131.579 1213.71 115.66C1218.24 102.172 1225.09 89.9688 1234.05 79.391C1244.19 67.4254 1257.18 57.3939 1272.67 49.5742C1282.92 44.3922 1294.42 39.994 1306.83 36.4998C1324.55 31.4974 1344.42 28.352 1365.92 27.1526C1386.04 26.0289 1407.26 26.6197 1428.99 28.9071C1447.31 30.8368 1465.37 34.0104 1482.66 38.3419C1500.06 42.7 1516.28 48.1299 1530.88 54.4801C1547.7 61.7922 1563.17 70.4268 1576.85 80.1451C1589.81 89.3527 1601.3 99.6217 1611 110.666C1629.14 131.327 1641.08 154.878 1645.52 178.769L1644.29 178.836C1634.75 127.531 1593.13 82.3954 1530.1 55.0011C1501.23 42.4403 1465.24 33.4063 1428.75 29.5632C1383.63 24.8117 1341.67 27.4153 1307.41 37.092C1295.09 40.5581 1283.69 44.9221 1273.51 50.0626C1244.34 64.7966 1224.63 86.9065 1214.93 115.781C1209.56 131.656 1208.01 147.881 1206.99 161.843C1206.53 168.024 1206.91 175.717 1207.31 183.863C1207.98 197.471 1208.74 212.895 1206.19 227.806C1203.23 245.108 1196.34 258.316 1185.11 268.185C1179 273.586 1171.41 278.031 1162.55 281.398C1152.99 285.035 1141.64 287.533 1128.81 288.823C1122.34 289.474 1115.87 289.77 1109.44 289.77C1070.95 289.77 1033.65 279.145 1002.81 270.36C979.859 263.821 956.619 256.416 933.739 248.348C915.248 241.815 897.108 234.864 879.826 227.69C841.112 211.624 806.627 191.809 773.28 172.647C763.871 167.241 754.143 161.651 744.417 156.199C726.558 146.187 705.074 134.497 681.122 123.697C638.069 104.303 589.995 94.6846 538.223 95.0973C456.917 95.5901 381.149 120.511 331.904 141.333C296.532 156.288 262.369 174.261 235.707 191.943C215.526 205.328 200.156 219.544 183.885 234.594C181.92 236.412 179.947 238.235 177.963 240.061C174.366 243.372 169.604 247.737 164.66 252.117C156.564 259.3 143.855 269.756 127.021 277.593C118.845 281.399 110.145 284.39 101.162 286.485C91.1452 288.82 80.3895 290.132 69.1995 290.383C67.6139 290.42 66.0173 290.438 64.4097 290.438Z" fill="#FFE492"/>
<path d="M69.5768 311.102C53.4651 311.102 35.9768 309.278 16.3037 305.555C-4.06458 301.702 -24.2021 296.284 -41.2123 291.491C-46.439 290.015 -51.6547 288.519 -56.7001 287.072C-70.8029 283.027 -84.1253 279.204 -96.6865 276.084C-141.795 264.877 -186.61 253.936 -229.952 243.354C-244.288 239.853 -259.111 236.234 -273.477 232.719L-272.939 232.077C-258.572 235.592 -243.749 239.211 -229.413 242.711C-186.071 253.293 -141.251 264.236 -96.1396 275.444C-83.5455 278.574 -70.2066 282.399 -56.0873 286.45C-51.0447 287.897 -45.8289 289.392 -40.6077 290.867C-5.32867 300.804 35.592 311.322 74.776 310.332C122.886 309.088 149.907 287.492 168.077 268.817C172.735 264.032 177.239 259.229 180.641 255.579C182.388 253.706 184.125 251.834 185.859 249.966C201.446 233.171 216.167 217.307 236.068 202.073C261.952 182.259 296.156 161.753 332.375 144.33C382.815 120.172 460.773 90.704 545.726 87.5081C599.752 85.421 649.477 94.3778 693.514 114.132C713.3 123.012 732.866 133.254 756.96 147.345C769.137 154.466 781.22 161.846 792.904 168.981C823.306 187.547 854.738 206.744 890.157 222.768C907.315 230.533 925.307 238.084 943.63 245.212C965.818 253.835 989.014 262.037 1012.57 269.593C1048.75 281.128 1093.78 295.487 1139.11 291.422C1163.97 289.24 1182.75 282.36 1194.94 270.975C1219.67 247.933 1214.36 210.235 1210.48 182.711C1209.4 174.986 1208.37 167.69 1208.17 161.804C1207.72 148.724 1207.76 131.477 1212.09 114.058C1219.57 83.8728 1237.91 60.2771 1266.61 43.9295C1276.67 38.1701 1288.2 33.1663 1300.89 29.056C1318.94 23.2016 1339.31 19.2635 1361.43 17.3531C1382.26 15.5541 1404.19 15.5823 1426.61 17.4377C1445.52 19.0379 1464.12 21.9384 1481.89 26.0561C1499.83 30.2153 1516.47 35.5146 1531.35 41.8069C1548.55 49.0774 1564.26 57.7417 1578.05 67.5609C1591.12 76.8665 1602.56 87.281 1612.08 98.5178C1629.94 119.614 1640.96 143.64 1643.94 167.999L1642.64 168.045C1636.22 115.569 1595.36 69.7593 1530.55 42.3635C1501.16 29.9348 1464.18 21.3298 1426.41 18.1354C1379.86 14.2834 1336.69 18.269 1301.57 29.6616C1288.98 33.7378 1277.54 38.7015 1267.56 44.4149C1239.06 60.6541 1220.83 84.1163 1213.39 114.153C1209.06 131.525 1209.03 148.737 1209.48 161.793C1209.68 167.657 1210.7 174.944 1211.79 182.659C1213.79 196.886 1216.06 213.014 1214.77 228.759C1213.25 247.093 1207.14 261.018 1196.07 271.33C1190.11 276.892 1182.58 281.434 1173.68 284.83C1164.04 288.513 1152.48 290.965 1139.33 292.12C1118.94 293.947 1096.99 292.306 1072.24 287.1C1050.72 282.574 1030.1 276.001 1011.91 270.203C988.318 262.637 965.092 254.423 942.872 245.788C924.521 238.65 906.505 231.088 889.321 223.313C853.828 207.256 822.36 188.038 791.929 169.453C780.25 162.32 768.169 154.944 756.004 147.829C731.951 133.763 712.42 123.54 692.681 114.681C648.905 95.0399 599.496 86.1365 545.814 88.2102C461.227 91.3942 383.527 120.772 333.238 144.857C297.091 162.244 262.957 182.708 237.129 202.48C217.283 217.671 202.584 233.512 187.022 250.283C185.288 252.151 183.551 254.023 181.803 255.897C178.398 259.55 173.892 264.358 169.228 269.146C150.899 287.987 123.606 309.777 74.8337 311.037C73.0997 311.08 71.3438 311.102 69.5768 311.102Z" fill="#FFE492"/>
<path d="M74.8472 331.769C30.8239 331.769 -15.3675 317.164 -56.3157 304.216C-68.8988 300.238 -80.784 296.48 -92.0784 293.301L-274.5 241.976L-273.865 241.318L-91.4436 292.644C-80.119 295.829 -68.2201 299.592 -55.6204 303.576C-13.0894 317.025 35.1191 332.268 80.4037 330.947C129.574 329.515 155.477 306.1 172.55 285.863C178.134 279.244 183.526 272.51 188.741 265.996C203.006 248.184 217.755 229.764 237.384 212.621C252.971 199.009 272.333 184.734 293.378 171.34C316.464 156.646 341.182 143.165 366.84 131.272C395.131 118.16 423.898 107.314 452.337 99.0357C483.793 89.88 514.783 83.9024 544.45 81.2676C603.882 75.9906 657.935 83.9989 705.105 105.073C744.305 122.584 777.622 144.238 809.843 165.18C837.889 183.408 866.889 202.255 899.728 218.367C937.659 236.975 978.711 254.148 1021.75 269.406C1058.01 282.262 1103.14 298.264 1149.65 294.667C1188.93 291.63 1211.64 277.433 1219.07 251.264C1225.4 229.004 1219.38 202.598 1214.55 181.382C1212.9 174.151 1211.34 167.322 1210.58 161.784C1206.37 131.253 1209.05 106.049 1218.79 84.7351C1224.87 71.4365 1233.84 59.5822 1245.45 49.5018C1258.42 38.2412 1275.07 28.854 1294.94 21.6013C1312.13 15.3268 1331.5 10.7697 1352.52 8.05627C1372.53 5.47344 1393.59 4.60805 1415.13 5.48384C1457.49 7.20572 1498.93 15.6014 1531.81 29.1227C1549.38 36.3501 1565.34 45.0456 1579.24 54.9658C1592.4 64.3679 1603.81 74.9293 1613.15 86.359C1630.72 107.89 1640.82 132.393 1642.34 157.216L1640.97 157.241C1637.73 104.379 1596.61 56.7055 1530.97 29.7149C1461.27 1.05146 1362.33 -2.10285 1295.7 22.2173C1229.71 46.3089 1202.31 91.9433 1211.95 161.729C1212.71 167.249 1214.26 174.07 1215.91 181.291C1220.75 202.554 1226.79 229.016 1220.43 251.377C1216.97 263.556 1210.01 273.344 1199.75 280.47C1193.98 284.477 1187.02 287.751 1179.07 290.201C1170.61 292.807 1160.78 294.557 1149.84 295.403C1145.37 295.749 1140.82 295.923 1136.19 295.923C1119.34 295.923 1101.39 293.621 1081.72 288.957C1059.56 283.702 1038.17 276.12 1020.99 270.028C977.895 254.748 936.785 237.552 898.799 218.918C865.886 202.772 836.856 183.902 808.779 165.655C776.6 144.74 743.324 123.112 704.223 105.646C657.369 84.7158 603.687 76.7595 544.665 82.0009C425.274 92.6023 302.29 157.345 238.544 213.013C218.967 230.108 204.238 248.503 189.992 266.292C184.773 272.808 179.379 279.547 173.79 286.172C162.454 299.607 151.259 309.227 138.557 316.445C130.629 320.948 122.028 324.499 112.992 326.997C102.946 329.774 92.0031 331.354 80.4669 331.691C78.6037 331.743 76.7268 331.769 74.8472 331.769Z" fill="#FFE492"/>
</svg>
