<svg width="55" height="53" viewBox="0 0 55 53" fill="none" xmlns="http://www.w3.org/2000/svg">
<path d="M0.182198 40.6503C0.18204 34.4298 0.205922 28.261 0.166964 22.0926C0.155334 20.2513 0.0799013 18.4094 0.0795899 16.5665C0.0794849 15.9501 0.310971 15.5104 0.834407 15.2064C2.60466 14.1784 4.37004 13.1419 6.14823 12.1275C8.43523 10.8228 10.7416 9.55119 13.0233 8.23772C15.2422 6.96046 17.4503 5.6639 19.6615 4.37446C21.7052 3.18271 23.8151 2.09728 25.7923 0.79943C26.7773 0.152843 27.6342 0.330821 28.5204 0.903264C30.0604 1.89806 31.6184 2.86482 33.2197 3.75943C34.2592 4.34015 35.3486 4.83673 36.3671 5.45001C37.7711 6.29538 39.1928 7.10859 40.6136 7.92494C42.0959 8.77666 43.5617 9.65635 45.0373 10.5196C47.1904 11.7792 49.3418 13.0417 51.5027 14.288C52.1031 14.6343 52.7363 14.9212 53.3247 15.2942C53.7564 15.568 53.9792 15.9256 54.0231 16.4173C54.1355 17.6744 54.0695 18.9318 54.0166 20.1877C53.8822 23.3773 53.9768 26.5677 53.9632 29.7577C53.9489 33.1255 53.9496 36.4935 53.9638 39.8614C53.9719 41.7745 54.012 43.6875 54.0548 45.6002C54.0688 46.2262 53.8679 46.6346 53.2648 46.9551C51.0497 48.1326 48.8665 49.3694 46.6769 50.5936C46.0236 50.9589 45.3772 51.3388 44.7483 51.7436C44.1451 52.1317 43.5864 52.1718 42.9543 51.7775C40.7019 50.3726 38.2752 49.2603 36.0756 47.762C35.6097 47.4445 35.0588 47.2486 34.5445 47.0019C33.8991 46.6922 33.5986 46.2077 33.6085 45.4765C33.6322 43.7221 33.6108 41.9671 33.6053 40.2124C33.6026 39.3809 33.3011 39.2094 32.5393 39.576C31.2851 40.1796 30.0531 40.8104 28.9474 41.672C28.5474 41.9838 28.0439 42.1731 27.5721 42.3845C27.1808 42.5598 26.7737 42.5527 26.3802 42.3477C25.8751 42.0845 25.3771 41.8216 24.9169 41.4734C23.7655 40.602 22.4442 40.0102 21.1686 39.3462C20.7214 39.1134 20.4495 39.2725 20.42 39.7935C20.3729 40.6242 20.3101 41.4601 20.3554 42.2884C20.4154 43.3887 20.3707 44.4822 20.3267 45.5792C20.3016 46.2042 20.0432 46.6506 19.4955 46.9647C18.1667 47.7266 16.7584 48.3407 15.4583 49.1596C14.1192 50.0031 12.7193 50.7517 11.3764 51.5897C10.3037 52.2591 9.88692 52.3381 8.71848 51.4343C7.73002 50.6698 6.63171 50.138 5.52725 49.6077C4.49069 49.11 3.58427 48.4135 2.58767 47.8597C2.01302 47.5404 1.41969 47.2573 0.847326 46.9297C0.320183 46.6281 0.110814 46.2541 0.104218 45.6962C0.0845302 44.0308 0.0795079 42.3657 0.182198 40.6503ZM3.36746 37.0958C3.32116 39.4007 3.42716 41.7039 3.44414 44.008C3.44766 44.4855 3.63314 44.7794 4.0748 45.0101C5.21202 45.6042 6.32422 46.246 7.43724 46.8844C7.75808 47.0684 8.08213 47.2601 8.43989 47.0873C8.80718 46.9099 8.673 46.5265 8.67511 46.2243C8.71418 40.6399 8.61596 35.0563 8.5669 29.4725C8.56503 29.2602 8.54194 29.0415 8.58391 28.8369C8.65836 28.4741 8.84793 28.3012 9.23187 28.5413C9.83326 28.9173 10.4173 29.3332 11.055 29.637C12.6817 30.412 14.205 31.3639 15.7389 32.2919C17.3968 33.2948 19.0601 34.2916 20.7742 35.1895C22.4695 36.0776 24.0307 37.1709 25.6868 38.1131C26.2482 38.4325 26.8451 38.8234 27.5466 38.4936C27.9967 38.282 28.434 38.0359 28.8532 37.7685C30.8032 36.5249 32.8438 35.4357 34.8553 34.2971C36.4668 33.3848 38.0913 32.4947 39.6924 31.565C41.354 30.6002 42.9911 29.5941 44.6459 28.6178C45.2508 28.261 45.6601 28.5059 45.6484 29.2022C45.633 30.1218 45.5882 31.0411 45.5851 31.9607C45.57 36.5526 45.5641 41.1444 45.5564 45.7363C45.5561 45.9489 45.5596 46.1625 45.5797 46.3739C45.64 47.0086 46.1016 47.2189 46.6258 46.8599C46.8164 46.7294 47.0164 46.6124 47.2111 46.4875C48.0979 45.9184 49.0673 45.501 49.9933 45.004C50.4575 44.7548 50.6895 44.399 50.6893 43.8483C50.6873 38.3167 50.7065 32.7852 50.7089 27.2537C50.7099 25.0731 50.6855 22.8924 50.6693 20.7119C50.6644 20.05 50.2875 19.8169 49.6901 20.099C49.5125 20.1829 49.333 20.2646 49.162 20.3606C47.5932 21.2412 46.0467 22.1572 44.4528 22.9987C43.4115 23.5485 42.4108 24.2168 41.3937 24.8327C39.7066 25.8544 37.971 26.7973 36.267 27.7923C33.7587 29.257 31.1425 30.5398 28.7167 32.142C27.6236 32.8639 26.6725 32.9226 25.4854 32.1743C23.3814 30.8482 21.1416 29.7346 18.9716 28.5096C16.8626 27.3191 14.7641 26.1101 12.6714 24.8917C9.96731 23.3173 7.27458 21.7237 4.57451 20.1425C3.89497 19.7445 3.47797 19.9885 3.46732 20.7763C3.46326 21.0768 3.45367 21.3773 3.45198 21.6779C3.42312 26.7817 3.39511 31.8855 3.36746 37.0958ZM14.3031 11.3732C14.0908 11.6079 13.7738 11.6601 13.5143 11.8144C12.2785 12.5496 11.0511 13.2979 9.7821 13.9788C8.60545 14.6102 7.45387 15.2882 6.30179 15.9633C5.63414 16.3545 5.66791 16.9335 6.35851 17.298C6.54747 17.3977 6.75127 17.4753 6.92637 17.5946C8.98694 18.9981 11.2473 20.0628 13.3864 21.3341C15.3709 22.5136 17.4042 23.6126 19.4155 24.7479C21.6629 26.0166 23.924 27.2613 26.1433 28.5791C26.5311 28.8094 26.9587 29.1224 27.493 28.8567C29.5359 27.8409 31.4347 26.5796 33.4179 25.462C35.1705 24.4744 36.9077 23.4599 38.6653 22.4811C40.1261 21.6677 41.5537 20.7975 43.0553 20.0528C44.73 19.2223 46.2317 18.0851 47.9372 17.3014C48.52 17.0336 48.5816 16.4502 48.0526 16.095C47.3317 15.6111 46.5894 15.1541 45.8304 14.7311C43.6223 13.5006 41.3773 12.333 39.1956 11.0589C38.1203 10.4309 37.0809 9.74787 35.9323 9.25175C35.6115 9.1132 35.2988 9.03461 34.9535 9.1938C34.3209 9.48549 33.7088 9.81182 33.1103 10.1671C31.5485 11.0943 29.9803 12.011 28.4152 12.9328C26.6656 13.9633 24.8629 14.9056 23.164 16.0204C22.6699 16.3446 22.6371 16.9554 23.1379 17.2288C24.3244 17.8766 25.4302 18.6622 26.6617 19.2327C27.0023 19.3904 27.2907 19.3779 27.6197 19.1851C29.8766 17.8625 32.1679 16.5972 34.3831 15.2047C35.0002 14.8168 35.6701 14.758 36.3333 15.0497C36.9361 15.3148 37.5309 15.6046 38.0726 15.9882C38.6315 16.384 38.6446 16.7252 38.0542 17.0717C36.9184 17.7382 35.7791 18.4014 34.6163 19.0199C32.3204 20.2409 30.1388 21.6497 27.925 23.0034C27.3249 23.3704 26.864 23.3862 26.3023 23.0505C24.7267 22.1092 23.1501 21.1693 21.5613 20.2501C19.7729 19.2155 17.9706 18.2045 16.1747 17.1825C15.5714 16.8392 15.5599 16.4493 16.1619 16.0845C16.7248 15.7435 17.3053 15.431 17.8771 15.1042C20.0247 13.8764 22.1732 12.6499 24.319 11.4189C25.7715 10.5855 27.1966 9.70642 28.6888 8.93926C29.4946 8.52503 30.2588 8.03015 31.0329 7.55749C31.5194 7.26044 31.5495 6.9686 31.1502 6.58371C31.0107 6.44927 30.8532 6.32909 30.6898 6.22377C29.8389 5.67515 28.986 5.12811 28.1335 4.58383C27.3656 4.09357 26.7064 4.12396 25.9932 4.56084C25.31 4.97936 24.6449 5.42709 23.9592 5.84132C22.6965 6.60399 21.3832 7.27885 20.1172 8.03875C18.2248 9.1746 16.2863 10.2351 14.3031 11.3732ZM17.1621 42.4149C17.1582 40.8195 17.1453 39.224 17.1564 37.6287C17.1593 37.2071 16.9914 36.9011 16.6478 36.6991C15.3606 35.9426 14.1208 35.1014 12.7189 34.5486C12.2681 34.3708 12.0606 34.4524 11.9684 34.9356C11.9023 35.282 11.8581 35.6381 11.8567 35.99C11.8433 39.2515 11.8394 42.5131 11.8397 45.7746C11.8398 46.0741 11.8621 46.3789 11.9209 46.672C12.0262 47.197 12.2424 47.3096 12.7127 47.0622C14.1177 46.323 15.4977 45.5397 16.8408 44.6938C17.0776 44.5446 17.1607 44.3332 17.1575 44.0634C17.1513 43.5494 17.1596 43.0353 17.1621 42.4149ZM37.1589 40.7128C37.1613 41.7573 37.1702 42.8018 37.1636 43.8462C37.1602 44.3723 37.3615 44.7759 37.8263 45.0338C39.0088 45.6899 40.1933 46.3425 41.3799 46.9914C41.8999 47.2757 42.1954 47.0954 42.1842 46.4889C42.1745 45.9588 42.1059 45.4289 42.1099 44.8993C42.1245 42.9524 42.1654 41.0058 42.1826 39.0589C42.1941 37.7667 42.2016 36.4738 42.1733 35.1821C42.1566 34.4176 41.8078 34.2329 41.1447 34.6038C40.0903 35.1936 39.0464 35.802 37.9983 36.403C37.48 36.7002 37.1931 37.1349 37.1878 37.7387C37.1794 38.6946 37.1689 39.6505 37.1589 40.7128Z" fill="white"/>
</svg>
